<svg width="483" height="667" viewBox="0 0 483 667" fill="none" xmlns="http://www.w3.org/2000/svg">
<g opacity="0.5">
<path d="M302.635 610.047C308.93 575.013 335.831 490.716 393.075 433.798C419.882 407.144 467.002 383.274 430.207 476.605C416.402 506.226 374.854 573.501 319.096 605.636C292.986 619.927 242.046 628.548 247.171 548.705C248.268 531.608 251.833 522.211 257.883 500.894" stroke="#79071D" stroke-width="2"/>
<path d="M248.628 537.309C254.923 502.275 281.824 417.978 339.068 361.06C365.875 334.406 412.995 310.535 376.2 403.866C362.396 433.487 320.847 500.763 265.089 532.898C238.979 547.189 188.039 555.809 193.164 475.967C194.262 458.87 197.827 449.473 203.877 428.156" stroke="#79071D" stroke-width="2"/>
<path d="M194.516 465.053C200.812 430.02 227.713 345.722 284.957 288.804C311.763 262.15 358.883 238.28 322.089 331.611C308.284 361.232 266.736 428.508 210.977 460.643C184.867 474.933 133.928 483.554 139.052 403.712C140.15 386.615 143.715 377.217 149.765 355.901" stroke="#79071D" stroke-width="2"/>
<path d="M140.405 392.798C146.7 357.764 173.601 273.467 230.845 216.549C257.652 189.895 304.772 166.025 267.977 259.356C254.173 288.977 212.624 356.252 156.866 388.387C130.756 402.678 79.8162 411.298 84.941 331.456C86.0384 314.359 89.6036 304.962 95.6536 283.645" stroke="#79071D" stroke-width="2"/>
<path d="M86.4016 318.95C92.6966 283.917 119.598 199.619 176.842 142.701C203.648 116.047 250.768 92.177 213.974 185.508C200.169 215.129 158.621 282.405 102.862 314.54C76.7526 328.83 25.8127 337.451 30.9375 257.609C32.0349 240.512 35.6002 231.114 41.6501 209.798" stroke="#79071D" stroke-width="2"/>
<path d="M32.5938 245.833C38.8889 210.799 65.79 126.502 123.034 69.5842C149.841 42.9301 196.961 19.0599 160.166 112.391C146.361 142.012 104.813 209.288 49.0546 241.422C22.9448 255.713 -27.995 264.334 -22.8702 184.491C-21.7728 167.394 -18.2076 157.997 -12.1576 136.68" stroke="#79071D" stroke-width="2"/>
</g>
</svg>
