<svg width="156" height="44" viewBox="0 0 156 44" fill="none" xmlns="http://www.w3.org/2000/svg">
<path d="M62.2003 13.2156L65.6837 3.64695C65.7984 3.34591 65.8557 3.04488 65.8557 2.74384C65.8557 2.34246 65.7554 1.94825 65.5547 1.5612V1.5182H68.35L73.016 13.7961C73.5464 15.2153 74.041 16.2617 74.4997 16.9355V17H70.7583V16.914C70.8299 16.785 70.8658 16.5413 70.8658 16.1829C70.8658 16.0252 70.8514 15.7314 70.8228 15.3013C70.7941 14.8713 70.6651 14.3552 70.4357 13.7531L69.6831 11.7319H63.7054L63.1894 13.1511C62.9314 14.0255 62.8023 14.7781 62.8023 15.4088C62.8023 16.0252 62.874 16.5269 63.0174 16.914V17H60.5661V16.9355C61.0391 16.1614 61.5839 14.9214 62.2003 13.2156ZM64.0065 10.8718H69.3391L66.6083 3.64695L64.0065 10.8718ZM75.9842 13.8821V9.40962C75.9842 8.69287 75.8337 7.67508 75.5327 6.35626V6.29176H78.199V7.88294C79.1021 6.73614 80.1485 6.16274 81.3383 6.16274C82.0121 6.16274 82.6213 6.32759 83.166 6.6573C83.7108 6.987 84.105 7.48873 84.3487 8.16247C85.3235 6.82932 86.4416 6.16274 87.7031 6.16274C88.6348 6.16274 89.4161 6.47094 90.0468 7.08735C90.6919 7.68942 91.0145 8.59969 91.0145 9.81817V13.8821C91.0145 14.5989 91.165 15.6167 91.466 16.9355V17H88.3481V16.9355C88.3625 16.8782 88.3983 16.7205 88.4557 16.4624C88.513 16.1901 88.5632 15.9392 88.6062 15.7099C88.6492 15.4805 88.6922 15.1938 88.7352 14.8498C88.7782 14.5057 88.7997 14.1832 88.7997 13.8821V10.0977C88.7997 9.29494 88.5847 8.69287 88.1546 8.29149C87.7389 7.87577 87.23 7.66792 86.628 7.66792C85.9829 7.66792 85.2733 7.99762 84.4992 8.65703C84.5852 9.00107 84.6282 9.38812 84.6282 9.81817V13.8821C84.6282 14.1832 84.6497 14.5057 84.6927 14.8498C84.7357 15.1938 84.7787 15.4805 84.8217 15.7099C84.8647 15.9392 84.9149 16.1901 84.9723 16.4624C85.0296 16.7205 85.0654 16.8782 85.0798 16.9355V17H81.9619V16.9355C82.2629 15.6167 82.4135 14.5989 82.4135 13.8821V10.0977C82.4135 9.29494 82.1984 8.69287 81.7684 8.29149C81.3527 7.87577 80.8366 7.66792 80.2202 7.66792C79.5465 7.66792 78.8727 7.96178 78.199 8.54952V13.8821C78.199 14.1832 78.2205 14.5057 78.2635 14.8498C78.3065 15.1938 78.3495 15.4805 78.3925 15.7099C78.4355 15.9392 78.4857 16.1901 78.543 16.4624C78.6003 16.7205 78.6362 16.8782 78.6505 16.9355V17H75.5327V16.9355C75.8337 15.6167 75.9842 14.5989 75.9842 13.8821ZM94.2061 7.66792C95.1522 6.66447 96.3635 6.16274 97.84 6.16274C99.3022 6.16274 100.435 6.65013 101.237 7.62491C102.054 8.58536 102.463 9.81817 102.463 11.3233H95.1952C95.2525 12.6278 95.5894 13.6743 96.2058 14.4627C96.8222 15.2511 97.6895 15.6453 98.8076 15.6453C100.026 15.6453 101.209 15.1221 102.356 14.0757L102.42 14.1402C102.047 15.0146 101.46 15.7385 100.657 16.3119C99.8541 16.8853 98.9223 17.172 97.8615 17.172C96.4423 17.172 95.2382 16.6775 94.2491 15.6883C93.26 14.6849 92.7654 13.3374 92.7654 11.6459C92.7654 9.99735 93.2456 8.67137 94.2061 7.66792ZM95.1952 10.7643L100.162 10.3987C100.134 9.35228 99.9186 8.51368 99.5172 7.88294C99.1301 7.23787 98.5639 6.91533 97.8185 6.91533C96.9871 6.91533 96.3491 7.28087 95.9048 8.01196C95.4604 8.72871 95.2239 9.64614 95.1952 10.7643ZM103.965 6.35626V6.29176H106.652V8.11947C107.097 7.33104 107.613 6.79348 108.201 6.50678C108.803 6.22008 109.347 6.07673 109.835 6.07673C110.208 6.07673 110.595 6.14124 110.996 6.27025L110.652 8.76454H110.566C110.208 8.44917 109.856 8.22698 109.512 8.09796C109.168 7.96895 108.846 7.90444 108.545 7.90444C108.373 7.90444 108.115 7.93311 107.771 7.99045C107.441 8.04779 107.068 8.27715 106.652 8.67853V13.8821C106.652 14.5989 106.803 15.6167 107.104 16.9355V17H103.965V16.9355C104.266 15.6167 104.416 14.5989 104.416 13.8821V9.40962C104.416 8.69287 104.266 7.67508 103.965 6.35626ZM112.41 6.35626V6.29176H115.076V13.8821C115.076 14.1832 115.098 14.5057 115.141 14.8498C115.184 15.1938 115.227 15.4805 115.27 15.7099C115.313 15.9392 115.363 16.1901 115.42 16.4624C115.478 16.7205 115.514 16.8782 115.528 16.9355V17H112.41V16.9355C112.711 15.6167 112.862 14.5989 112.862 13.8821L112.883 9.40962C112.883 8.76454 112.725 7.74676 112.41 6.35626ZM112.324 2.48581C112.324 2.05576 112.475 1.69739 112.776 1.41069C113.077 1.10965 113.442 0.959135 113.872 0.959135C114.302 0.959135 114.668 1.10965 114.969 1.41069C115.27 1.69739 115.42 2.05576 115.42 2.48581C115.42 2.90153 115.27 3.25274 114.969 3.53943C114.654 3.84047 114.288 3.99099 113.872 3.99099C113.457 3.99099 113.091 3.84764 112.776 3.56094C112.475 3.2599 112.324 2.90153 112.324 2.48581ZM118.48 7.62491C119.426 6.65013 120.666 6.16274 122.2 6.16274C123.318 6.16274 124.58 6.50678 125.985 7.19486L126.028 9.88267H125.92C124.745 7.90444 123.519 6.91533 122.243 6.91533C121.355 6.91533 120.666 7.31671 120.179 8.11947C119.706 8.92223 119.469 9.91851 119.469 11.1083C119.484 12.4845 119.806 13.5883 120.437 14.4197C121.068 15.2368 121.949 15.6453 123.082 15.6453C124.257 15.6453 125.383 15.1723 126.458 14.2262L126.522 14.2692C126.135 15.1293 125.555 15.8317 124.781 16.3764C124.021 16.9068 123.132 17.172 122.114 17.172C120.709 17.172 119.512 16.6846 118.523 15.7099C117.534 14.7207 117.04 13.3661 117.04 11.6459C117.04 9.94001 117.52 8.59969 118.48 7.62491ZM127.647 13.9466C127.647 12.7425 128.127 11.8681 129.088 11.3233C130.048 10.7643 131.052 10.4847 132.098 10.4847C132.485 10.4847 132.894 10.5206 133.324 10.5923C133.782 10.6639 134.119 10.7356 134.334 10.8073V9.43112C134.334 8.6427 134.169 8.03346 133.84 7.60341C133.51 7.17336 133.087 6.95833 132.571 6.95833C131.969 6.95833 131.209 7.2737 130.292 7.90444C129.389 8.53518 128.765 9.07991 128.421 9.53863H128.357V7.02284C129.933 6.44944 131.374 6.16274 132.679 6.16274C133.911 6.16274 134.865 6.46378 135.538 7.06585C136.226 7.65358 136.571 8.46351 136.571 9.49563V14.7207C136.571 15.5378 136.836 15.9464 137.366 15.9464C137.538 15.9464 137.732 15.9105 137.947 15.8389L137.968 15.9034C137.696 16.6918 137.115 17.086 136.226 17.086C135.18 17.086 134.564 16.57 134.377 15.5378C133.56 16.6273 132.464 17.172 131.087 17.172C130.027 17.172 129.188 16.8566 128.572 16.2259C127.955 15.5808 127.647 14.8211 127.647 13.9466ZM129.991 13.6886C129.991 14.3337 130.206 14.8713 130.636 15.3013C131.066 15.717 131.589 15.9249 132.206 15.9249C133.008 15.9249 133.718 15.5522 134.334 14.8067V11.4309C134.22 11.4309 134.126 11.4237 134.055 11.4093C133.653 11.3377 133.273 11.3018 132.915 11.3018C132.184 11.3018 131.51 11.5025 130.894 11.9039C130.292 12.291 129.991 12.8859 129.991 13.6886ZM139.505 13.8821V9.40962C139.505 8.69287 139.354 7.67508 139.053 6.35626V6.29176H141.741V8.11947C142.687 6.81498 143.848 6.16274 145.224 6.16274C146.214 6.16274 147.045 6.46378 147.719 7.06585C148.392 7.66792 148.729 8.58536 148.729 9.81817V13.8821C148.729 14.5272 148.887 15.545 149.202 16.9355V17H146.042V16.9355C146.357 15.545 146.515 14.5272 146.515 13.8821V10.0977C146.515 9.2806 146.3 8.6642 145.87 8.24848C145.454 7.83277 144.931 7.62491 144.3 7.62491C144.285 7.62491 144.271 7.62491 144.257 7.62491C143.411 7.62491 142.572 8.01196 141.741 8.78604V13.8821C141.741 14.5989 141.892 15.6167 142.193 16.9355V17H139.053V16.9355C139.354 15.6167 139.505 14.5989 139.505 13.8821ZM61.2757 23.5827V23.5182H64.5655V23.5827C64.2502 24.9732 64.0925 25.991 64.0925 26.6361V33.1943C64.0925 34.7282 64.4437 35.9323 65.1461 36.8067C65.8485 37.6668 66.8018 38.0969 68.0059 38.0969C69.1527 38.0969 70.1204 37.7027 70.9088 36.9143C71.7115 36.1115 72.1129 34.9217 72.1129 33.3448V27.8187C72.1129 26.7722 71.8406 25.3746 71.2958 23.6257V23.5182H73.8116V23.6257C73.7973 23.6544 73.7471 23.8192 73.6611 24.1203C73.5751 24.407 73.5034 24.665 73.4461 24.8944C73.3887 25.1094 73.3242 25.3889 73.2526 25.733C73.1809 26.077 73.1235 26.4282 73.0805 26.7866C73.0375 27.145 73.016 27.489 73.016 27.8187V33.4739C73.016 35.3374 72.4928 36.7709 71.4463 37.7744C70.3999 38.7635 69.1026 39.258 67.5544 39.258C66.809 39.258 66.0994 39.1362 65.4256 38.8925C64.7519 38.6488 64.1355 38.2833 63.5764 37.7959C63.0174 37.3085 62.5658 36.6562 62.2218 35.8391C61.8921 35.022 61.7272 34.0903 61.7272 33.0438V26.6361C61.7272 25.9193 61.5767 24.9015 61.2757 23.5827ZM75.7322 35.8821V31.4096C75.7322 30.6929 75.5817 29.6751 75.2807 28.3563V28.2918H77.9685V30.1195C78.9146 28.815 80.0757 28.1627 81.4519 28.1627C82.441 28.1627 83.2724 28.4638 83.9462 29.0658C84.6199 29.6679 84.9568 30.5854 84.9568 31.8182V35.8821C84.9568 36.5272 85.1145 37.545 85.4299 38.9355V39H82.269V38.9355C82.5844 37.545 82.742 36.5272 82.742 35.8821V32.0977C82.742 31.2806 82.527 30.6642 82.097 30.2485C81.6813 29.8328 81.158 29.6249 80.5273 29.6249C80.513 29.6249 80.4986 29.6249 80.4843 29.6249C79.6385 29.6249 78.7999 30.012 77.9685 30.786V35.8821C77.9685 36.5989 78.119 37.6167 78.42 38.9355V39H75.2807V38.9355C75.5817 37.6167 75.7322 36.5989 75.7322 35.8821ZM87.1279 28.3563V28.2918H89.7942V35.8821C89.7942 36.1832 89.8157 36.5057 89.8587 36.8498C89.9017 37.1938 89.9447 37.4805 89.9877 37.7099C90.0307 37.9392 90.0809 38.1901 90.1382 38.4624C90.1956 38.7205 90.2314 38.8782 90.2457 38.9355V39H87.1279V38.9355C87.4289 37.6167 87.5794 36.5989 87.5794 35.8821L87.6009 31.4096C87.6009 30.7645 87.4433 29.7468 87.1279 28.3563ZM87.0419 24.4858C87.0419 24.0558 87.1924 23.6974 87.4934 23.4107C87.7945 23.1097 88.16 22.9591 88.5901 22.9591C89.0201 22.9591 89.3856 23.1097 89.6867 23.4107C89.9877 23.6974 90.1382 24.0558 90.1382 24.4858C90.1382 24.9015 89.9877 25.2527 89.6867 25.5394C89.3713 25.8405 89.0058 25.991 88.5901 25.991C88.1743 25.991 87.8088 25.8476 87.4934 25.5609C87.1924 25.2599 87.0419 24.9015 87.0419 24.4858ZM91.4134 28.3563V28.2918H95.3269V28.3563C95.1979 28.643 95.1262 28.9082 95.1119 29.1519C95.1119 29.3812 95.1119 29.5031 95.1119 29.5174C95.1119 29.9474 95.2194 30.4707 95.4344 31.0871L97.8642 36.9143L100.165 31.1086C100.337 30.5352 100.423 30.0406 100.423 29.6249C100.423 29.5676 100.416 29.4171 100.401 29.1734C100.387 28.9297 100.315 28.6573 100.186 28.3563V28.2918H102.401V28.3563C101.799 29.4027 101.412 30.1553 101.24 30.614L97.9072 39H96.3375L93.0476 31.1516C92.4886 29.8758 91.9438 28.944 91.4134 28.3563ZM104.117 29.6679C105.063 28.6645 106.275 28.1627 107.751 28.1627C109.213 28.1627 110.346 28.6501 111.149 29.6249C111.966 30.5854 112.374 31.8182 112.374 33.3233H105.106C105.164 34.6278 105.501 35.6743 106.117 36.4627C106.734 37.2511 107.601 37.6453 108.719 37.6453C109.937 37.6453 111.12 37.1221 112.267 36.0757L112.331 36.1402C111.959 37.0146 111.371 37.7385 110.568 38.3119C109.765 38.8853 108.834 39.172 107.773 39.172C106.354 39.172 105.149 38.6775 104.16 37.6883C103.171 36.6849 102.677 35.3374 102.677 33.6459C102.677 31.9974 103.157 30.6714 104.117 29.6679ZM105.106 32.7643L110.074 32.3987C110.045 31.3523 109.83 30.5137 109.428 29.8829C109.041 29.2379 108.475 28.9153 107.73 28.9153C106.898 28.9153 106.26 29.2809 105.816 30.012C105.372 30.7287 105.135 31.6461 105.106 32.7643ZM113.876 28.3563V28.2918H116.564V30.1195C117.008 29.331 117.524 28.7935 118.112 28.5068C118.714 28.2201 119.259 28.0767 119.746 28.0767C120.119 28.0767 120.506 28.1412 120.907 28.2703L120.563 30.7645H120.477C120.119 30.4492 119.768 30.227 119.424 30.098C119.08 29.969 118.757 29.9044 118.456 29.9044C118.284 29.9044 118.026 29.9331 117.682 29.9905C117.352 30.0478 116.98 30.2772 116.564 30.6785V35.8821C116.564 36.5989 116.714 37.6167 117.015 38.9355V39H113.876V38.9355C114.177 37.6167 114.328 36.5989 114.328 35.8821V31.4096C114.328 30.6929 114.177 29.6751 113.876 28.3563ZM122.994 28.9798C123.754 28.4351 124.729 28.1627 125.918 28.1627C127.123 28.1627 128.355 28.4566 129.617 29.0443V31.4096H129.531C128.155 29.7611 126.893 28.9368 125.746 28.9368C125.202 28.9368 124.736 29.073 124.349 29.3454C123.962 29.6034 123.768 29.9761 123.768 30.4635C123.768 30.9509 123.976 31.3236 124.392 31.5816C124.807 31.8253 125.51 32.112 126.499 32.4417C126.528 32.4417 126.549 32.4489 126.563 32.4632C126.592 32.4632 126.621 32.4704 126.649 32.4847C127.825 32.8861 128.671 33.3448 129.187 33.8609C129.717 34.377 129.982 35.0435 129.982 35.8606C129.982 36.9358 129.602 37.76 128.843 38.3334C128.083 38.8925 127.144 39.172 126.026 39.172C124.822 39.172 123.481 38.8351 122.005 38.1614V35.6456H122.069C122.542 36.176 122.951 36.6132 123.295 36.9573C123.639 37.287 124.076 37.6095 124.607 37.9249C125.151 38.2259 125.675 38.3764 126.176 38.3764C126.721 38.3764 127.187 38.2331 127.574 37.9464C127.975 37.6453 128.176 37.2296 128.176 36.6992C128.176 36.1832 127.968 35.7818 127.553 35.4951C127.137 35.2084 126.413 34.8859 125.381 34.5275C124.191 34.1261 123.302 33.6817 122.715 33.1943C122.141 32.7069 121.854 32.0619 121.854 31.2591C121.854 30.2987 122.234 29.5389 122.994 28.9798ZM131.687 28.3563V28.2918H134.353V35.8821C134.353 36.1832 134.375 36.5057 134.418 36.8498C134.461 37.1938 134.504 37.4805 134.547 37.7099C134.59 37.9392 134.64 38.1901 134.697 38.4624C134.754 38.7205 134.79 38.8782 134.805 38.9355V39H131.687V38.9355C131.988 37.6167 132.138 36.5989 132.138 35.8821L132.16 31.4096C132.16 30.7645 132.002 29.7468 131.687 28.3563ZM131.601 24.4858C131.601 24.0558 131.751 23.6974 132.052 23.4107C132.353 23.1097 132.719 22.9591 133.149 22.9591C133.579 22.9591 133.945 23.1097 134.246 23.4107C134.547 23.6974 134.697 24.0558 134.697 24.4858C134.697 24.9015 134.547 25.2527 134.246 25.5394C133.93 25.8405 133.565 25.991 133.149 25.991C132.733 25.991 132.368 25.8476 132.052 25.5609C131.751 25.2599 131.601 24.9015 131.601 24.4858ZM136.037 28.4638C136.926 28.1771 137.642 27.7614 138.187 27.2166C138.732 26.6576 139.205 25.9623 139.606 25.1309H139.821V28.2918H142.81V29.1089H139.821L139.843 35.8606C139.843 37.0648 140.359 37.6668 141.391 37.6668C142.022 37.6668 142.66 37.459 143.305 37.0433C143.018 37.674 142.602 38.1901 142.058 38.5915C141.527 38.9785 140.911 39.172 140.208 39.172C139.377 39.172 138.732 38.8997 138.273 38.3549C137.829 37.8102 137.607 37.0719 137.607 36.1402V29.1089H136.037V28.4638ZM143.574 28.3563V28.2918H147.509V28.3563C147.38 28.6573 147.309 28.9225 147.294 29.1519C147.294 29.3669 147.294 29.4816 147.294 29.4959C147.294 29.9259 147.402 30.4492 147.617 31.0656L149.961 36.4627L152.089 31.1086C152.276 30.5208 152.369 30.0191 152.369 29.6034C152.369 29.5604 152.362 29.4171 152.347 29.1734C152.333 28.9297 152.261 28.6573 152.132 28.3563V28.2918H154.326V28.3563C153.881 29.03 153.487 29.7826 153.143 30.614L149.036 40.8922C148.405 42.4834 147.416 43.279 146.069 43.279C145.495 43.279 144.857 43.1356 144.155 42.8489L144.628 40.6557L144.671 40.6342C144.986 40.9352 145.309 41.1789 145.639 41.3653C145.983 41.5516 146.255 41.6591 146.456 41.6878C146.656 41.7165 146.793 41.7308 146.864 41.7308C147.122 41.7308 147.387 41.6376 147.66 41.4513C147.932 41.2793 148.161 40.9639 148.348 40.5052L148.821 39.301L145.208 31.1086C144.635 29.8041 144.09 28.8867 143.574 28.3563Z" fill="white"/>
<g clip-path="url(#clip0_154_893)">
<path d="M0.44626 33.5375C2.80747 34.2462 5.19928 34.8318 7.61034 35.2872C10.0223 35.7313 12.4596 36.0337 14.8969 36.0997C16.1151 36.1305 17.3324 36.1014 18.5392 35.9915C19.7461 35.886 20.945 35.7067 22.116 35.4235C24.4554 34.8634 26.6985 33.9059 28.6015 32.4455L28.605 32.4419C28.8262 32.2722 29.1419 32.3171 29.3107 32.5378C29.406 32.6635 29.4332 32.8235 29.3982 32.966C29.2521 33.6404 29.3658 34.2699 29.776 34.5768C30.1765 34.9065 30.8621 34.9382 31.4104 34.6832C31.9693 34.4335 32.3812 33.9138 32.5666 33.2852C32.7555 32.6538 32.7336 31.9267 32.5902 31.2119C32.5622 31.1116 32.5709 31.0114 32.6094 30.9226L32.6322 30.8689L33.2609 29.4023C33.4813 28.9091 33.7174 28.4105 33.9877 27.919C34.5229 26.9333 35.2505 26.0189 36.0926 25.268C37.7997 23.768 39.8102 22.8184 41.8181 22.0253C43.8374 21.2357 45.9118 20.658 47.9905 20.1366C50.071 19.6187 52.1707 19.2002 54.2748 18.83C54.4165 18.8054 54.5529 18.9012 54.5783 19.0437C54.6019 19.1817 54.5144 19.3136 54.3806 19.347C52.3106 19.8482 50.252 20.3837 48.2135 20.9737C46.1767 21.5654 44.1653 22.2407 42.2239 23.0435C40.2965 23.8577 38.4127 24.8293 36.9322 26.2027C36.188 26.8832 35.5732 27.6675 35.0458 28.5389C34.7791 28.9741 34.5386 29.4349 34.2964 29.907C34.0445 30.3739 33.804 30.8593 33.5224 31.3306L33.5653 30.9868C33.7664 31.801 33.8591 32.6961 33.6151 33.5876C33.3921 34.4739 32.7598 35.318 31.8783 35.7155C31.4428 35.9177 30.9583 36.0214 30.4668 35.9889C29.978 35.9572 29.4725 35.7875 29.065 35.449C28.654 35.114 28.3942 34.6049 28.3155 34.1134C28.2316 33.6175 28.3059 33.1462 28.4248 32.718L29.2206 33.2368C27.2451 34.8828 24.8463 35.9643 22.3784 36.5472C19.9052 37.1416 17.3621 37.2911 14.8575 37.1865C12.3494 37.0845 9.86486 36.7319 7.42582 36.2114C4.98328 35.6979 2.58709 35.0032 0.233751 34.2049C0.0518508 34.1433 -0.0460956 33.9455 0.0151209 33.7635C0.0754628 33.585 0.265234 33.4865 0.442762 33.5393L0.44626 33.5375Z" fill="white"/>
<path d="M50.2369 16.3447L49.9299 16.473C49.9369 16.4932 49.9457 16.5601 49.9378 16.6093C49.9308 16.6629 49.9151 16.7175 49.8923 16.7702C49.8442 16.8766 49.7664 16.9795 49.6737 17.0709C49.4866 17.2547 49.2443 17.3989 48.9925 17.5202C48.4852 17.7629 47.929 17.9221 47.3702 18.0513C47.0877 18.1181 46.8088 18.1665 46.5149 18.2272C46.2255 18.287 45.9378 18.352 45.6518 18.4224C45.0798 18.5639 44.5123 18.7248 43.95 18.9042C41.7068 19.6234 39.5363 20.6161 37.5686 21.9491C35.6053 23.2768 33.8466 24.9746 32.5821 27.0277C32.541 27.0946 32.5042 27.1667 32.4631 27.2352C32.5025 27.1394 32.5375 27.0409 32.5794 26.9451C33.4959 24.8445 34.9363 22.9875 36.6442 21.44C38.3556 19.8881 40.3251 18.622 42.4108 17.6108C42.9329 17.3584 43.4629 17.1219 44.0007 16.9047C44.2692 16.7966 44.5394 16.6928 44.8122 16.5961C45.0807 16.5003 45.3676 16.4071 45.6422 16.2989C46.1957 16.0853 46.7423 15.8426 47.2513 15.505C47.5031 15.3353 47.7471 15.1401 47.9465 14.8833C48.0453 14.7541 48.1319 14.6072 48.18 14.4375C48.2036 14.3531 48.2176 14.2617 48.2141 14.1693C48.2089 14.0726 48.2001 13.99 48.1424 13.8757L47.853 14.0427C47.8617 14.0612 47.8783 14.1271 47.8766 14.1755C47.8766 14.2291 47.8678 14.2863 47.8512 14.3417C47.8171 14.4542 47.7515 14.565 47.6702 14.6661C47.5066 14.8719 47.2845 15.0442 47.0493 15.1972C46.5753 15.4997 46.0427 15.7265 45.5031 15.9235C45.2311 16.0237 44.9583 16.1055 44.6758 16.2005C44.396 16.2954 44.1187 16.3956 43.8424 16.5012C43.2914 16.7113 42.7484 16.9408 42.2123 17.187C40.0723 18.1762 38.0399 19.4274 36.2472 20.9907C34.4588 22.5496 32.9196 24.4506 31.9139 26.6435C31.8807 26.7156 31.8527 26.7903 31.8203 26.8633C31.8483 26.7622 31.8711 26.6611 31.9008 26.5617C32.5549 24.3644 33.7592 22.3456 35.2668 20.6003C36.778 18.8506 38.5787 17.3514 40.5262 16.0923C41.0133 15.7784 41.5109 15.4786 42.0181 15.1972C42.2718 15.0565 42.528 14.9211 42.786 14.791C43.0405 14.6626 43.3133 14.536 43.5739 14.3953C44.0978 14.1148 44.6111 13.8071 45.0746 13.4097C45.3037 13.2092 45.5232 12.9876 45.6903 12.7071C45.7716 12.5673 45.8398 12.4117 45.8678 12.2367C45.88 12.1497 45.8835 12.0582 45.8695 11.9659C45.8521 11.8709 45.8337 11.7901 45.7637 11.6837L45.4961 11.8833C45.5075 11.9008 45.532 11.9641 45.5355 12.0125C45.5425 12.0661 45.5398 12.1233 45.5302 12.1804C45.5101 12.2965 45.4585 12.4143 45.3903 12.526C45.2513 12.7502 45.0527 12.9489 44.8385 13.1283C44.4047 13.487 43.9036 13.7754 43.392 14.0383C43.134 14.1702 42.8743 14.2863 42.6041 14.4147C42.3373 14.543 42.075 14.6767 41.8144 14.8147C41.2932 15.0908 40.7816 15.3854 40.2787 15.6958C38.2752 16.939 36.409 18.4303 34.82 20.202C33.2345 21.9684 31.9367 24.0435 31.2029 26.3437C31.1793 26.4193 31.161 26.4967 31.1373 26.5732C31.1531 26.4694 31.1636 26.3665 31.1802 26.2637C31.5632 24.0031 32.513 21.8506 33.7985 19.9347C35.0867 18.0126 36.6923 16.3042 38.4728 14.8156C38.9188 14.4437 39.3762 14.0858 39.8458 13.7447C40.0802 13.5741 40.3172 13.4088 40.5577 13.247C40.7956 13.0887 41.0509 12.9287 41.2914 12.7581C41.7759 12.4152 42.2499 12.0468 42.6618 11.5966C42.8647 11.3698 43.0562 11.1218 43.1874 10.8246C43.2521 10.6751 43.3002 10.5116 43.3054 10.3349C43.3089 10.2461 43.3002 10.1555 43.2748 10.0658C43.246 9.97261 43.218 9.89436 43.1349 9.79764L42.8944 10.0298C42.9067 10.0447 42.939 10.1054 42.9486 10.1529C42.9618 10.2047 42.9661 10.261 42.9644 10.3199C42.9583 10.4377 42.9207 10.5608 42.8664 10.6795C42.7571 10.9187 42.584 11.1403 42.3916 11.3451C42.005 11.754 41.5424 12.1022 41.0658 12.4249C40.8262 12.5875 40.5831 12.7335 40.3303 12.8962C40.0811 13.0562 39.8362 13.2206 39.594 13.3894C39.1095 13.728 38.639 14.0832 38.1781 14.4516C36.3399 15.9323 34.6678 17.6407 33.3044 19.5935C31.9454 21.5411 30.9091 23.7595 30.4605 26.1326C30.4447 26.2118 30.436 26.2927 30.422 26.3727C30.4255 26.2672 30.422 26.1625 30.4281 26.057C30.5348 23.7657 31.2169 21.5139 32.2611 19.4537C33.3053 17.3883 34.6932 15.4962 36.2795 13.8001C36.6774 13.3771 37.0885 12.9656 37.5126 12.5691C37.726 12.3704 37.9403 12.1769 38.1598 11.9879C38.3758 11.8015 38.611 11.6124 38.8288 11.412C39.2687 11.0128 39.6937 10.589 40.0478 10.0913C40.2228 9.84248 40.3819 9.57167 40.4764 9.2604C40.5218 9.10477 40.5507 8.93683 40.535 8.76098C40.5262 8.67305 40.5078 8.58337 40.472 8.49808C40.4318 8.4084 40.3942 8.3363 40.3006 8.24925L40.089 8.50863C40.1029 8.5227 40.1432 8.57897 40.158 8.62557C40.1773 8.67481 40.1895 8.73109 40.1939 8.78912C40.2026 8.90606 40.1808 9.03268 40.1414 9.15753C40.061 9.40812 39.9158 9.6508 39.7514 9.87589C39.4164 10.3296 39.0002 10.7323 38.5664 11.1113C38.3487 11.3021 38.1248 11.477 37.8939 11.6687C37.6657 11.8569 37.4426 12.0512 37.2231 12.2482C36.7841 12.6429 36.3582 13.0527 35.9463 13.4756C34.3005 15.1708 32.8488 17.0718 31.7329 19.1768C30.6196 21.2756 29.8605 23.6048 29.7023 26.0139C29.697 26.094 29.6979 26.174 29.6935 26.2549C29.6839 26.1502 29.6682 26.0474 29.6612 25.9427C29.4889 23.6557 29.8929 21.3362 30.6791 19.1636C31.4653 16.9856 32.6135 14.9369 33.983 13.0597C34.3267 12.5902 34.6844 12.1321 35.057 11.6863C35.2441 11.4638 35.4347 11.244 35.6298 11.0304C35.8213 10.8185 36.0312 10.6013 36.2236 10.3762C36.6119 9.92689 36.9818 9.45384 37.2721 8.91661C37.4147 8.64756 37.5406 8.36092 37.5966 8.03998C37.6228 7.87908 37.6307 7.7085 37.5939 7.53528C37.5747 7.44912 37.545 7.36295 37.4986 7.28206C37.4488 7.19765 37.4024 7.12994 37.2992 7.05696L37.1217 7.34097C37.1374 7.3524 37.1829 7.4034 37.2048 7.44736C37.2301 7.49396 37.2485 7.54935 37.2599 7.60563C37.2826 7.72081 37.2765 7.84918 37.2529 7.97843C37.203 8.23694 37.0885 8.49544 36.952 8.73988C36.6739 9.23051 36.3093 9.68245 35.9254 10.1107C35.7321 10.327 35.5309 10.5274 35.3246 10.7464C35.1217 10.9618 34.924 11.1807 34.729 11.4041C34.3407 11.849 33.969 12.3088 33.6114 12.7801C32.1833 14.6617 30.9721 16.7263 30.1203 18.9534C29.2685 21.1745 28.798 23.5793 28.9336 25.9902C28.9379 26.0711 28.9484 26.1511 28.9537 26.232C28.9309 26.13 28.9038 26.028 28.8837 25.9251C28.4351 23.6751 28.5558 21.3248 29.0726 19.0713C29.5894 16.8133 30.4806 14.6406 31.6113 12.6095C31.8956 12.1013 32.1946 11.6019 32.5112 11.1148C32.6704 10.8712 32.8322 10.6294 32.9992 10.3929C33.1645 10.159 33.3464 9.91898 33.5091 9.67102C33.8396 9.17775 34.1501 8.66162 34.374 8.09274C34.4833 7.80786 34.5725 7.50803 34.59 7.1827C34.597 7.02091 34.5838 6.85034 34.5261 6.68328C34.4973 6.59975 34.457 6.51885 34.4019 6.44324C34.3425 6.36762 34.2882 6.30431 34.1772 6.24452L34.0338 6.54875C34.0513 6.55842 34.102 6.60326 34.13 6.64371C34.1614 6.68767 34.1851 6.73955 34.2034 6.79494C34.2401 6.90661 34.2489 7.03498 34.241 7.16511C34.2235 7.42801 34.1413 7.69795 34.0355 7.95733C33.8195 8.47874 33.5125 8.97113 33.1829 9.44417C33.0176 9.68245 32.8418 9.90667 32.6634 10.1485C32.4876 10.3867 32.318 10.6285 32.1527 10.8747C31.8212 11.3636 31.5073 11.8657 31.2091 12.3774C30.0197 14.4208 29.0682 16.6181 28.4919 18.9323C27.9156 21.2413 27.7398 23.6856 28.1675 26.0623C28.1815 26.1406 28.2007 26.2179 28.2164 26.2962C28.1823 26.1977 28.143 26.101 28.1106 26.0025C27.3926 23.8254 27.2274 21.4769 27.4661 19.1776C27.7057 16.8731 28.3258 14.6063 29.2029 12.4521C29.4233 11.9123 29.6603 11.3812 29.9156 10.858C30.0433 10.596 30.1754 10.3375 30.3135 10.0816C30.4482 9.82929 30.5995 9.56815 30.7324 9.30261C31.0009 8.77153 31.2458 8.22287 31.3988 7.63025C31.474 7.33481 31.5256 7.02619 31.5029 6.70174C31.4898 6.53908 31.4557 6.37114 31.3796 6.21287C31.3402 6.13549 31.2904 6.05812 31.2265 5.99041C31.1583 5.92095 31.0962 5.86644 30.9782 5.82072L30.8741 6.13813C30.8925 6.14692 30.9493 6.18385 30.9808 6.22166C31.0175 6.26123 31.0473 6.30959 31.0718 6.36234C31.1216 6.46874 31.147 6.59535 31.154 6.72636C31.168 6.98926 31.119 7.26623 31.0455 7.53704C30.8942 8.08131 30.6494 8.60799 30.3791 9.11708C30.2445 9.37383 30.0967 9.61827 29.9489 9.88029C29.8046 10.1388 29.6638 10.3991 29.5291 10.6628C29.2598 11.1895 29.0088 11.7259 28.7753 12.2693C27.843 14.4437 27.1644 16.7412 26.8732 19.1091C26.5828 21.4708 26.7035 23.9186 27.4154 26.225C27.439 26.3015 27.4679 26.3762 27.4932 26.4527C27.4469 26.3586 27.3961 26.268 27.3515 26.1731C26.3756 24.0998 25.9269 21.7891 25.8858 19.4775C25.8439 17.1615 26.1858 14.8358 26.7945 12.5893C26.9484 12.0275 27.118 11.47 27.3078 10.9205C27.4031 10.6452 27.5028 10.3727 27.6078 10.101C27.7127 9.83457 27.8299 9.55584 27.9296 9.27623C28.1325 8.71702 28.3091 8.1411 28.3887 7.53528C28.4272 7.23194 28.4412 6.91892 28.3791 6.59975C28.3476 6.44148 28.2934 6.27881 28.1981 6.13022C28.15 6.05724 28.0914 5.98602 28.0197 5.92711C27.9427 5.8682 27.8745 5.81984 27.7521 5.78906L27.6865 6.11791C27.7066 6.1223 27.7669 6.15308 27.8028 6.18649C27.843 6.22166 27.8798 6.2665 27.9104 6.31486C27.9725 6.41422 28.0127 6.53644 28.0363 6.66569C28.0826 6.92419 28.0678 7.20732 28.0267 7.48429C27.9427 8.04174 27.7634 8.5948 27.5571 9.13467C27.4547 9.40636 27.3376 9.66663 27.2239 9.94447C27.111 10.2179 27.0035 10.4949 26.9029 10.7727C26.6983 11.3293 26.5146 11.892 26.3485 12.4601C25.6865 14.733 25.292 17.0955 25.2894 19.4819C25.2868 21.8612 25.7031 24.2765 26.6895 26.4782C26.7219 26.5512 26.7604 26.6206 26.7936 26.6927C26.7359 26.6057 26.6747 26.5213 26.6196 26.4342C25.3996 24.4963 24.6738 22.2577 24.3537 19.9681C24.031 17.6741 24.087 15.3238 24.4193 13.0201C24.5041 12.4433 24.6055 11.8701 24.7271 11.3012C24.7883 11.0163 24.8539 10.7332 24.9256 10.4518C24.9965 10.174 25.0795 9.8838 25.1451 9.59365C25.2781 9.01333 25.3839 8.42071 25.39 7.80874C25.3909 7.50363 25.3673 7.19149 25.2667 6.88199C25.2151 6.72724 25.1434 6.57425 25.0297 6.43796C24.9737 6.37114 24.9064 6.30871 24.8277 6.25859C24.7446 6.20935 24.6729 6.16978 24.547 6.15396L24.5225 6.48896C24.5426 6.49072 24.6055 6.51446 24.6458 6.54347C24.6904 6.57249 24.7306 6.61206 24.7673 6.65778C24.8408 6.74834 24.8959 6.86528 24.9344 6.99014C25.0122 7.24249 25.0306 7.52385 25.0244 7.80434C25.0087 8.36883 24.8985 8.93947 24.7586 9.49957C24.6895 9.78093 24.6047 10.0535 24.5251 10.3437C24.4464 10.6294 24.3738 10.9169 24.3065 11.2053C24.1718 11.7821 24.0581 12.3633 23.961 12.948C23.5797 15.2843 23.4748 17.6794 23.7616 20.0464C24.0485 22.4089 24.7542 24.7548 25.9995 26.8193C26.0415 26.8888 26.0887 26.9548 26.1307 27.0233C26.0625 26.9433 25.9899 26.8659 25.9235 26.7842C24.4787 25.0107 23.487 22.8776 22.8897 20.6443C22.2924 18.4065 22.0642 16.0677 22.114 13.7394C22.128 13.1573 22.1586 12.5752 22.2111 11.9949C22.2365 11.7039 22.268 11.4164 22.3047 11.128C22.3405 10.844 22.3895 10.545 22.4184 10.2496C22.4796 9.65695 22.5128 9.05642 22.4446 8.44796C22.4087 8.14462 22.3475 7.83687 22.2111 7.54232C22.1411 7.3946 22.0511 7.25128 21.9208 7.13082C21.8569 7.07103 21.7826 7.01828 21.6986 6.97695C21.6112 6.93826 21.5334 6.90837 21.4074 6.90837L21.4223 7.24249C21.4433 7.24249 21.5089 7.25832 21.5517 7.28206C21.5989 7.3058 21.6444 7.34009 21.6864 7.38053C21.7703 7.46231 21.8386 7.57046 21.8928 7.69004C22.0003 7.93095 22.0528 8.20792 22.0799 8.48753C22.1333 9.04938 22.0922 9.6297 22.0213 10.2021C21.9864 10.4896 21.9365 10.7719 21.8919 11.0691C21.8491 11.3627 21.8115 11.6564 21.78 11.9518C21.7153 12.5409 21.6724 13.1327 21.6488 13.7236C21.5526 16.0888 21.7389 18.4786 22.3099 20.7946C22.8801 23.1036 23.8657 25.3457 25.3524 27.2423C25.4022 27.3065 25.4573 27.3671 25.5089 27.4304C25.4311 27.3583 25.3498 27.2906 25.2737 27.2168C23.6235 25.6332 22.3808 23.6373 21.5185 21.4936C20.6545 19.3465 20.1437 17.0525 19.912 14.7356C19.8543 14.1562 19.8158 13.575 19.7966 12.9929C19.7878 12.701 19.7834 12.4099 19.7852 12.1198C19.7869 11.8331 19.7983 11.5315 19.7913 11.2335C19.7808 10.6382 19.7406 10.0377 19.5998 9.44241C19.5263 9.14698 19.4293 8.84891 19.257 8.57282C19.1713 8.43653 19.0628 8.30376 18.9203 8.20089C18.8486 8.14901 18.7699 8.10505 18.6815 8.07515C18.5897 8.04702 18.5093 8.02679 18.3833 8.04262L18.4393 8.37323C18.4594 8.37147 18.5267 8.3785 18.5722 8.39609C18.6221 8.41455 18.6728 8.44269 18.7191 8.47786C18.8127 8.5482 18.8932 8.64756 18.9605 8.75922C19.0969 8.98432 19.1835 9.25249 19.2439 9.52682C19.3654 10.0781 19.3943 10.6584 19.3934 11.2361C19.3943 11.5263 19.3777 11.8112 19.3715 12.1127C19.3637 12.4091 19.3619 12.7054 19.3663 13.0017C19.375 13.5943 19.403 14.1861 19.4511 14.7769C19.6426 17.1369 20.1166 19.4854 20.9649 21.7134C21.8106 23.9362 23.0603 26.0403 24.7665 27.7408C24.8233 27.798 24.8845 27.8498 24.9422 27.9061C24.8565 27.8455 24.7691 27.7883 24.6851 27.725C22.8556 26.356 21.3794 24.528 20.2644 22.5065C19.1459 20.4807 18.3615 18.2658 17.8499 15.9947C17.7231 15.4267 17.6129 14.8543 17.5245 14.2793C17.4799 13.9917 17.4397 13.7033 17.4065 13.4141C17.3741 13.1301 17.3479 12.8285 17.3059 12.5339C17.2228 11.9439 17.1109 11.3531 16.8984 10.7798C16.7891 10.4949 16.657 10.2118 16.4524 9.95942C16.3501 9.83457 16.2276 9.71674 16.0728 9.63146C15.995 9.58837 15.9111 9.55496 15.8201 9.53562C15.7248 9.51979 15.6435 9.51012 15.5201 9.54001L15.6163 9.86094C15.6356 9.85655 15.7038 9.85567 15.751 9.86798C15.8026 9.88029 15.856 9.90139 15.9058 9.93041C16.0073 9.98844 16.0991 10.0772 16.1804 10.1801C16.3422 10.3867 16.4603 10.6426 16.5538 10.9073C16.7401 11.4401 16.8398 12.0116 16.9098 12.5858C16.9456 12.8742 16.964 13.1591 16.9928 13.458C17.0208 13.7535 17.0558 14.048 17.096 14.3417C17.1756 14.929 17.2771 15.5129 17.3951 16.0932C17.8717 18.4109 18.6273 20.6847 19.738 22.7923C20.8477 24.8946 22.3432 26.8299 24.2426 28.3088C24.3047 28.3572 24.3712 28.4011 24.4341 28.4495C24.3432 28.4003 24.2496 28.3545 24.1595 28.3018C22.177 27.1667 20.4909 25.5339 19.1398 23.6628C17.7843 21.7891 16.7366 19.6876 15.9539 17.4965C15.7589 16.9469 15.5805 16.3939 15.4231 15.8329C15.3435 15.5524 15.27 15.2711 15.2018 14.9888C15.1345 14.7101 15.0724 14.4138 14.9954 14.128C14.8415 13.553 14.6579 12.9797 14.3771 12.4372C14.2355 12.1673 14.0693 11.9017 13.8349 11.6757C13.7178 11.565 13.5813 11.463 13.4187 11.3961C13.3373 11.3636 13.249 11.3399 13.1563 11.3328C13.0592 11.3284 12.977 11.3293 12.859 11.3742L12.9928 11.681C13.0111 11.6731 13.0785 11.6643 13.1275 11.6696C13.1808 11.6757 13.235 11.6907 13.2892 11.7136C13.3968 11.7584 13.4991 11.8349 13.5918 11.9281C13.7781 12.1136 13.9268 12.3537 14.0518 12.6034C14.3011 13.109 14.4698 13.6655 14.608 14.2247C14.678 14.507 14.7313 14.7875 14.796 15.0811C14.8599 15.3713 14.9298 15.6579 15.005 15.9455C15.1563 16.5179 15.326 17.0859 15.514 17.6477C16.2687 19.8899 17.2937 22.0537 18.6527 24.0092C20.0091 25.9603 21.7275 27.6986 23.7914 28.9331C23.8596 28.9744 23.9313 29.0096 24.0004 29.05C23.9033 29.0122 23.8054 28.9788 23.7092 28.9375C21.6042 28.053 19.7327 26.6391 18.1638 24.9474C16.5914 23.2539 15.2971 21.2958 14.2547 19.2181C13.995 18.6976 13.751 18.1682 13.5254 17.6319C13.4134 17.3637 13.305 17.0938 13.2035 16.8221C13.103 16.5539 13.0059 16.2682 12.894 15.9921C12.6718 15.4408 12.4208 14.8947 12.0763 14.39C11.9022 14.1395 11.7046 13.8968 11.4457 13.7007C11.3163 13.6031 11.1685 13.5196 10.998 13.4738C10.914 13.4519 10.824 13.4387 10.7313 13.4431C10.6351 13.451 10.5529 13.4607 10.4409 13.5196L10.6106 13.808C10.6289 13.7983 10.6945 13.7807 10.7435 13.7816C10.7969 13.7807 10.8528 13.7895 10.9088 13.8053C11.0207 13.8379 11.1327 13.9003 11.2359 13.9812C11.4431 14.143 11.6189 14.3637 11.7737 14.5967C12.0824 15.068 12.3168 15.599 12.5232 16.1389C12.6272 16.4097 12.7138 16.6814 12.8135 16.9645C12.9123 17.245 13.0164 17.522 13.1266 17.7963C13.3443 18.3467 13.5822 18.8892 13.8376 19.423C14.8573 21.5578 16.1376 23.5793 17.7231 25.3536C19.3051 27.1245 21.222 28.6377 23.4206 29.6101C23.494 29.6427 23.5684 29.6691 23.6418 29.7007C23.5413 29.6743 23.4398 29.6532 23.3401 29.6251C21.1433 29.0061 19.1144 27.8323 17.3523 26.3454C15.5857 24.8568 14.0641 23.0719 12.7776 21.1367C12.4567 20.6522 12.1515 20.1571 11.8629 19.6516C11.7177 19.3992 11.5787 19.1442 11.4449 18.8866C11.3128 18.6334 11.1816 18.3608 11.0373 18.1014C10.7496 17.5809 10.4339 17.0692 10.0316 16.6102C9.82876 16.3833 9.60313 16.167 9.32328 16.0053C9.18161 15.9244 9.02507 15.8593 8.85104 15.8347C8.76446 15.8224 8.67264 15.8215 8.58256 15.8373C8.48724 15.8567 8.40678 15.876 8.30359 15.949L8.50823 16.2136C8.52484 16.2022 8.58694 16.1758 8.63591 16.1714C8.68751 16.1635 8.7461 16.1644 8.80294 16.1741C8.91751 16.1917 9.03644 16.2409 9.14838 16.3086C9.37313 16.444 9.57514 16.6401 9.75705 16.852C10.1208 17.2828 10.4182 17.7814 10.6875 18.2913C10.8231 18.5481 10.942 18.8066 11.0758 19.0765C11.207 19.3412 11.3452 19.605 11.4868 19.8635C11.7711 20.3831 12.0728 20.8922 12.3902 21.3916C13.6618 23.3841 15.1773 25.2349 16.9657 26.8018C18.7506 28.3642 20.8372 29.633 23.1364 30.3294C23.2116 30.3522 23.2876 30.3689 23.362 30.3909C23.2605 30.3777 23.1582 30.3689 23.0576 30.3531C20.8023 30.0076 18.6457 29.0896 16.7165 27.8314C14.7829 26.5705 13.0566 24.9861 11.5454 23.2223C11.1676 22.78 10.803 22.3263 10.4558 21.8603C10.2818 21.6273 10.113 21.3916 9.94857 21.1516C9.7859 20.9168 9.62324 20.6627 9.44834 20.4236C9.0994 19.9417 8.72424 19.4731 8.26861 19.0669C8.04036 18.8664 7.79025 18.6791 7.49203 18.5516C7.34337 18.4909 7.17983 18.4452 7.00405 18.4417C6.9166 18.4417 6.82565 18.4505 6.73732 18.4778C6.64462 18.5068 6.56767 18.5375 6.47409 18.6228L6.70846 18.8611C6.72333 18.8479 6.7828 18.8154 6.8309 18.804C6.88162 18.7899 6.93846 18.7846 6.99706 18.7864C7.11424 18.7899 7.23667 18.8242 7.35561 18.8769C7.59523 18.9833 7.81998 19.1539 8.02549 19.3429C8.43914 19.7254 8.7942 20.1844 9.12302 20.6566C9.29005 20.8949 9.43959 21.1375 9.604 21.3881C9.76754 21.6352 9.93545 21.8788 10.1077 22.1197C10.4523 22.6006 10.8143 23.0684 11.1904 23.5247C12.6937 25.3475 14.4217 26.9978 16.3877 28.3334C18.3483 29.6664 20.5723 30.6697 22.9396 31.0785C23.0192 31.0926 23.0987 31.1005 23.1783 31.1128C23.0734 31.1128 22.9693 31.1163 22.8652 31.1128C20.5836 31.046 18.3326 30.3988 16.2652 29.3868C14.1935 28.3713 12.287 27.011 10.5738 25.4451C10.1453 25.052 9.72906 24.6476 9.32766 24.2273C9.12739 24.0171 8.92975 23.8043 8.73823 23.5872C8.54933 23.3726 8.35694 23.1414 8.15405 22.9242C7.75002 22.4898 7.32063 22.0704 6.81953 21.7222C6.56854 21.5508 6.29744 21.396 5.98611 21.3072C5.83044 21.2633 5.66254 21.2378 5.48763 21.2554C5.40018 21.2659 5.31098 21.2861 5.22615 21.3239C5.13957 21.3644 5.06611 21.4039 4.98391 21.5007L5.24451 21.7082C5.25763 21.6932 5.31273 21.6528 5.3582 21.6361C5.40718 21.615 5.46314 21.6027 5.52174 21.5974C5.63805 21.5877 5.76398 21.6071 5.88904 21.644C6.13915 21.7196 6.38227 21.862 6.61052 22.0238C7.06614 22.3527 7.47542 22.7642 7.85846 23.1941C8.05348 23.4096 8.23013 23.632 8.42515 23.8606C8.61667 24.0866 8.81344 24.3082 9.01283 24.5253C9.41423 24.9597 9.82876 25.38 10.2573 25.7871C11.9696 27.4111 13.8857 28.8381 15.9985 29.9232C18.107 31.0055 20.4358 31.7292 22.8346 31.8444C22.9133 31.8487 22.9929 31.847 23.0725 31.8487C22.9702 31.8611 22.8679 31.8778 22.7647 31.8866C20.4927 32.1002 18.1796 31.7344 16.0046 30.9827C13.8262 30.23 11.7693 29.1116 9.87686 27.7672C9.40461 27.4304 8.94199 27.0796 8.49336 26.7112C8.26861 26.5283 8.04736 26.3401 7.83047 26.1476C7.61709 25.9585 7.39759 25.7519 7.17021 25.5611C6.71633 25.1795 6.23885 24.8146 5.69927 24.5315C5.42991 24.3926 5.14132 24.2721 4.82212 24.2211C4.66296 24.1974 4.49243 24.1921 4.32102 24.2325C4.23532 24.2528 4.14961 24.2844 4.07003 24.331C3.98783 24.3829 3.92136 24.4313 3.84965 24.5359L4.13475 24.71C4.14611 24.6924 4.19596 24.6467 4.23881 24.6238C4.28516 24.5974 4.33938 24.5781 4.39623 24.5667C4.50992 24.5429 4.63847 24.5447 4.76615 24.5675C5.02501 24.6124 5.28299 24.7232 5.52873 24.8559C6.02109 25.1268 6.47671 25.4846 6.91048 25.8636C7.12911 26.0535 7.33287 26.2531 7.55238 26.4553C7.77013 26.6558 7.99139 26.851 8.21701 27.0427C8.66739 27.4252 9.13001 27.7909 9.604 28.1435C11.5017 29.546 13.5761 30.7277 15.8052 31.5445C18.0283 32.3614 20.428 32.794 22.8233 32.6146C22.902 32.6093 22.9807 32.597 23.0585 32.59C22.958 32.6137 22.8591 32.6427 22.7586 32.6647C20.5294 33.1553 18.1892 33.0753 15.9399 32.5952C13.6845 32.1152 11.5078 31.257 9.46845 30.1553C8.95861 29.8792 8.45663 29.5873 7.96602 29.2769C7.72116 29.1221 7.47892 28.963 7.24017 28.7986C7.00405 28.6368 6.76268 28.4592 6.51345 28.2983C6.01672 27.9738 5.499 27.6714 4.92969 27.4559C4.64459 27.3522 4.34463 27.2669 4.02018 27.2563C3.85927 27.2511 3.68961 27.2669 3.52433 27.3276C3.44125 27.3583 3.36079 27.3997 3.28733 27.4568C3.21213 27.5175 3.15091 27.5738 3.09407 27.6872L3.39752 27.8252C3.40714 27.8068 3.45087 27.7549 3.4911 27.7267C3.53395 27.6951 3.58467 27.6696 3.63889 27.6503C3.74908 27.6124 3.87764 27.6001 4.00707 27.6063C4.26942 27.6186 4.53878 27.6977 4.79938 27.7997C5.32147 28.0072 5.81645 28.3071 6.29219 28.6306C6.53268 28.7924 6.75919 28.9648 7.0023 29.1397C7.2428 29.3112 7.48679 29.4782 7.7334 29.64C8.22576 29.9654 8.73036 30.2722 9.2437 30.5633C11.2962 31.723 13.4982 32.641 15.8096 33.18C18.1157 33.7172 20.5495 33.8526 22.9055 33.3822C22.9842 33.3664 23.0611 33.3444 23.1399 33.3277C23.0419 33.3646 22.9466 33.4059 22.8478 33.4411C20.6947 34.1999 18.3615 34.4074 16.0711 34.2069C13.7755 34.0065 11.5105 33.4218 9.35302 32.5785C8.81344 32.3658 8.27998 32.138 7.75614 31.8901C7.49466 31.7661 7.23405 31.6386 6.97782 31.505C6.72508 31.3731 6.46272 31.2253 6.19599 31.097C5.66341 30.8358 5.11246 30.5993 4.52128 30.456C4.2257 30.3874 3.91699 30.3391 3.59517 30.3681C3.43425 30.383 3.26897 30.4199 3.11156 30.5C3.03372 30.5395 2.95851 30.5923 2.89205 30.6573C2.82559 30.7268 2.77137 30.7892 2.72852 30.9097L3.04597 31.009C3.05384 30.9897 3.09057 30.9326 3.1273 30.9009C3.16578 30.864 3.213 30.8314 3.26547 30.8068C3.37041 30.7549 3.49547 30.7277 3.6249 30.7171C3.88638 30.6978 4.16361 30.7435 4.43383 30.813C4.97779 30.9545 5.50512 31.1919 6.01584 31.4548C6.27383 31.5858 6.51957 31.73 6.7828 31.8742C7.04253 32.0149 7.30489 32.1503 7.56812 32.2805C8.0972 32.5434 8.63503 32.7852 9.17899 33.012C11.3574 33.9115 13.6548 34.5525 16.0142 34.8048C18.3676 35.0554 20.7996 34.8919 23.0813 34.1357C24.2199 33.7612 25.3148 33.2415 26.3284 32.5952C27.0009 32.1662 27.6349 31.6782 28.2331 31.1497C28.2829 31.1172 28.3328 31.0829 28.3826 31.0495C28.4351 31.0231 28.4893 30.9959 28.5418 30.9686C28.5969 30.9484 28.6528 30.929 28.7071 30.9088C28.7648 30.8965 28.8225 30.8833 28.8793 30.8692C28.9397 30.864 29 30.8578 29.0604 30.8508C29.119 30.8525 29.1784 30.8543 29.237 30.8552C29.2947 30.8631 29.3524 30.8719 29.4102 30.8807C29.4696 30.8974 29.5282 30.9132 29.5868 30.929C29.641 30.9519 29.6953 30.9748 29.7495 30.9959C29.8011 31.0249 29.8527 31.0539 29.9043 31.0829C29.9515 31.119 29.9987 31.1541 30.0468 31.1884C30.0905 31.2297 30.1334 31.2719 30.178 31.3124C30.2156 31.3564 30.2515 31.4021 30.2899 31.4469C30.3223 31.4979 30.3555 31.5489 30.3888 31.6008C30.4132 31.6536 30.4386 31.7063 30.4648 31.7591C30.4841 31.8153 30.5024 31.8716 30.5217 31.9279C30.5339 31.9868 30.5453 32.0457 30.5584 32.1037C30.5094 32.1925 30.4788 32.2541 30.4788 32.2541C30.4788 32.2541 29.8745 33.9845 30.6555 34.1735C31.4111 34.3573 31.9699 33.6337 31.7618 32.0607H31.7635C31.7635 32.0607 31.7618 32.058 31.7618 32.0571C31.7548 32.007 31.7539 31.9639 31.746 31.9121C31.7355 31.8461 31.7215 31.7951 31.7093 31.7406L31.7128 31.7371C31.7128 31.7371 31.7093 31.7344 31.7084 31.7327C31.6804 31.6131 31.6489 31.5111 31.6113 31.439L31.6236 31.4232C31.6175 31.4188 31.6131 31.4144 31.6078 31.41C31.6743 31.1154 31.7495 30.8235 31.8352 30.5342C32.1579 29.4387 32.6179 28.3844 33.2012 27.4005C34.3643 25.4275 36.0181 23.7613 37.9018 22.4336C39.789 21.1041 41.8966 20.0886 44.0899 19.3394C44.6391 19.153 45.1935 18.9842 45.7532 18.8339C46.0339 18.7591 46.3147 18.6905 46.5963 18.6263C46.8744 18.5639 47.17 18.5076 47.4559 18.4338C48.0305 18.2896 48.6042 18.1146 49.1481 17.8429C49.4201 17.7049 49.6851 17.5422 49.9142 17.311C50.027 17.1958 50.1311 17.0613 50.2002 16.8968C50.2334 16.8159 50.2579 16.728 50.2675 16.6357C50.2736 16.539 50.2745 16.4554 50.2317 16.3359L50.2369 16.3447Z" fill="white"/>
</g>
<defs>
<clipPath id="clip0_154_893">
<rect width="54.5833" height="31.4267" fill="white" transform="translate(0 5.78906)"/>
</clipPath>
</defs>
</svg>
