<svg width="209" height="56" viewBox="0 0 209 56" fill="none" xmlns="http://www.w3.org/2000/svg">
<path d="M87.872 17.072L92.408 4.612C92.5573 4.22 92.632 3.828 92.632 3.436C92.632 2.91333 92.5013 2.4 92.24 1.896V1.84H95.88L101.956 17.828C102.647 19.676 103.291 21.0387 103.888 21.916V22H99.016V21.888C99.1093 21.72 99.156 21.4027 99.156 20.936C99.156 20.7307 99.1373 20.348 99.1 19.788C99.0627 19.228 98.8947 18.556 98.596 17.772L97.616 15.14H89.832L89.16 16.988C88.824 18.1267 88.656 19.1067 88.656 19.928C88.656 20.7307 88.7493 21.384 88.936 21.888V22H85.744V21.916C86.36 20.908 87.0693 19.2933 87.872 17.072ZM90.224 14.02H97.168L93.612 4.612L90.224 14.02ZM105.821 17.94V12.116C105.821 11.1827 105.625 9.85733 105.233 8.14V8.056H108.705V10.128C109.881 8.63467 111.244 7.888 112.793 7.888C113.67 7.888 114.464 8.10267 115.173 8.532C115.882 8.96133 116.396 9.61467 116.713 10.492C117.982 8.756 119.438 7.888 121.081 7.888C122.294 7.888 123.312 8.28933 124.133 9.092C124.973 9.876 125.393 11.0613 125.393 12.648V17.94C125.393 18.8733 125.589 20.1987 125.981 21.916V22H121.921V21.916C121.94 21.8413 121.986 21.636 122.061 21.3C122.136 20.9453 122.201 20.6187 122.257 20.32C122.313 20.0213 122.369 19.648 122.425 19.2C122.481 18.752 122.509 18.332 122.509 17.94V13.012C122.509 11.9667 122.229 11.1827 121.669 10.66C121.128 10.1187 120.465 9.848 119.681 9.848C118.841 9.848 117.917 10.2773 116.909 11.136C117.021 11.584 117.077 12.088 117.077 12.648V17.94C117.077 18.332 117.105 18.752 117.161 19.2C117.217 19.648 117.273 20.0213 117.329 20.32C117.385 20.6187 117.45 20.9453 117.525 21.3C117.6 21.636 117.646 21.8413 117.665 21.916V22H113.605V21.916C113.997 20.1987 114.193 18.8733 114.193 17.94V13.012C114.193 11.9667 113.913 11.1827 113.353 10.66C112.812 10.1187 112.14 9.848 111.337 9.848C110.46 9.848 109.582 10.2307 108.705 10.996V17.94C108.705 18.332 108.733 18.752 108.789 19.2C108.845 19.648 108.901 20.0213 108.957 20.32C109.013 20.6187 109.078 20.9453 109.153 21.3C109.228 21.636 109.274 21.8413 109.293 21.916V22H105.233V21.916C105.625 20.1987 105.821 18.8733 105.821 17.94ZM129.549 9.848C130.781 8.54133 132.358 7.888 134.281 7.888C136.185 7.888 137.66 8.52267 138.705 9.792C139.769 11.0427 140.301 12.648 140.301 14.608H130.837C130.912 16.3067 131.35 17.6693 132.153 18.696C132.956 19.7227 134.085 20.236 135.541 20.236C137.128 20.236 138.668 19.5547 140.161 18.192L140.245 18.276C139.76 19.4147 138.994 20.3573 137.949 21.104C136.904 21.8507 135.69 22.224 134.309 22.224C132.461 22.224 130.893 21.58 129.605 20.292C128.317 18.9853 127.673 17.2307 127.673 15.028C127.673 12.8813 128.298 11.1547 129.549 9.848ZM130.837 13.88L137.305 13.404C137.268 12.0413 136.988 10.9493 136.465 10.128C135.961 9.288 135.224 8.868 134.253 8.868C133.17 8.868 132.34 9.344 131.761 10.296C131.182 11.2293 130.874 12.424 130.837 13.88ZM142.257 8.14V8.056H145.757V10.436C146.335 9.40933 147.007 8.70933 147.773 8.336C148.557 7.96267 149.266 7.776 149.901 7.776C150.386 7.776 150.89 7.86 151.413 8.028L150.965 11.276H150.853C150.386 10.8653 149.929 10.576 149.481 10.408C149.033 10.24 148.613 10.156 148.221 10.156C147.997 10.156 147.661 10.1933 147.213 10.268C146.783 10.3427 146.298 10.6413 145.757 11.164V17.94C145.757 18.8733 145.953 20.1987 146.345 21.916V22H142.257V21.916C142.649 20.1987 142.845 18.8733 142.845 17.94V12.116C142.845 11.1827 142.649 9.85733 142.257 8.14ZM153.254 8.14V8.056H156.726V17.94C156.726 18.332 156.754 18.752 156.81 19.2C156.866 19.648 156.922 20.0213 156.978 20.32C157.034 20.6187 157.099 20.9453 157.174 21.3C157.249 21.636 157.295 21.8413 157.314 21.916V22H153.254V21.916C153.646 20.1987 153.842 18.8733 153.842 17.94L153.87 12.116C153.87 11.276 153.665 9.95067 153.254 8.14ZM153.142 3.1C153.142 2.54 153.338 2.07333 153.73 1.7C154.122 1.308 154.598 1.112 155.158 1.112C155.718 1.112 156.194 1.308 156.586 1.7C156.978 2.07333 157.174 2.54 157.174 3.1C157.174 3.64133 156.978 4.09867 156.586 4.472C156.175 4.864 155.699 5.06 155.158 5.06C154.617 5.06 154.141 4.87333 153.73 4.5C153.338 4.108 153.142 3.64133 153.142 3.1ZM161.159 9.792C162.391 8.52267 164.005 7.888 166.003 7.888C167.459 7.888 169.101 8.336 170.931 9.232L170.987 12.732H170.847C169.316 10.156 167.72 8.868 166.059 8.868C164.901 8.868 164.005 9.39067 163.371 10.436C162.755 11.4813 162.447 12.7787 162.447 14.328C162.465 16.12 162.885 17.5573 163.707 18.64C164.528 19.704 165.676 20.236 167.151 20.236C168.681 20.236 170.147 19.62 171.547 18.388L171.631 18.444C171.127 19.564 170.371 20.4787 169.363 21.188C168.373 21.8787 167.216 22.224 165.891 22.224C164.061 22.224 162.503 21.5893 161.215 20.32C159.927 19.032 159.283 17.268 159.283 15.028C159.283 12.8067 159.908 11.0613 161.159 9.792ZM173.095 18.024C173.095 16.456 173.72 15.3173 174.971 14.608C176.222 13.88 177.528 13.516 178.891 13.516C179.395 13.516 179.927 13.5627 180.487 13.656C181.084 13.7493 181.523 13.8427 181.803 13.936V12.144C181.803 11.1173 181.588 10.324 181.159 9.764C180.73 9.204 180.179 8.924 179.507 8.924C178.723 8.924 177.734 9.33467 176.539 10.156C175.363 10.9773 174.551 11.6867 174.103 12.284H174.019V9.008C176.072 8.26133 177.948 7.888 179.647 7.888C181.252 7.888 182.494 8.28 183.371 9.064C184.267 9.82933 184.715 10.884 184.715 12.228V19.032C184.715 20.096 185.06 20.628 185.751 20.628C185.975 20.628 186.227 20.5813 186.507 20.488L186.535 20.572C186.18 21.5987 185.424 22.112 184.267 22.112C182.904 22.112 182.102 21.44 181.859 20.096C180.795 21.5147 179.367 22.224 177.575 22.224C176.194 22.224 175.102 21.8133 174.299 20.992C173.496 20.152 173.095 19.1627 173.095 18.024ZM176.147 17.688C176.147 18.528 176.427 19.228 176.987 19.788C177.547 20.3293 178.228 20.6 179.031 20.6C180.076 20.6 181 20.1147 181.803 19.144V14.748C181.654 14.748 181.532 14.7387 181.439 14.72C180.916 14.6267 180.422 14.58 179.955 14.58C179.003 14.58 178.126 14.8413 177.323 15.364C176.539 15.868 176.147 16.6427 176.147 17.688ZM188.536 17.94V12.116C188.536 11.1827 188.34 9.85733 187.948 8.14V8.056H191.448V10.436C192.68 8.73733 194.192 7.888 195.984 7.888C197.272 7.888 198.355 8.28 199.232 9.064C200.109 9.848 200.548 11.0427 200.548 12.648V17.94C200.548 18.78 200.753 20.1053 201.164 21.916V22H197.048V21.916C197.459 20.1053 197.664 18.78 197.664 17.94V13.012C197.664 11.948 197.384 11.1453 196.824 10.604C196.283 10.0627 195.601 9.792 194.78 9.792C194.761 9.792 194.743 9.792 194.724 9.792C193.623 9.792 192.531 10.296 191.448 11.304V17.94C191.448 18.8733 191.644 20.1987 192.036 21.916V22H187.948V21.916C188.34 20.1987 188.536 18.8733 188.536 17.94ZM86.668 29.924V29.84H90.952V29.924C90.5413 31.7347 90.336 33.06 90.336 33.9V42.44C90.336 44.4373 90.7933 46.0053 91.708 47.144C92.6227 48.264 93.864 48.824 95.432 48.824C96.9253 48.824 98.1853 48.3107 99.212 47.284C100.257 46.2387 100.78 44.6893 100.78 42.636V35.44C100.78 34.0773 100.425 32.2573 99.716 29.98V29.84H102.992V29.98C102.973 30.0173 102.908 30.232 102.796 30.624C102.684 30.9973 102.591 31.3333 102.516 31.632C102.441 31.912 102.357 32.276 102.264 32.724C102.171 33.172 102.096 33.6293 102.04 34.096C101.984 34.5627 101.956 35.0107 101.956 35.44V42.804C101.956 45.2307 101.275 47.0973 99.912 48.404C98.5493 49.692 96.86 50.336 94.844 50.336C93.8733 50.336 92.9493 50.1773 92.072 49.86C91.1947 49.5427 90.392 49.0667 89.664 48.432C88.936 47.7973 88.348 46.948 87.9 45.884C87.4707 44.82 87.256 43.6067 87.256 42.244V33.9C87.256 32.9667 87.06 31.6413 86.668 29.924ZM105.493 45.94V40.116C105.493 39.1827 105.297 37.8573 104.905 36.14V36.056H108.405V38.436C109.637 36.7373 111.149 35.888 112.941 35.888C114.229 35.888 115.312 36.28 116.189 37.064C117.066 37.848 117.505 39.0427 117.505 40.648V45.94C117.505 46.78 117.71 48.1053 118.121 49.916V50H114.005V49.916C114.416 48.1053 114.621 46.78 114.621 45.94V41.012C114.621 39.948 114.341 39.1453 113.781 38.604C113.24 38.0627 112.558 37.792 111.737 37.792C111.718 37.792 111.7 37.792 111.681 37.792C110.58 37.792 109.488 38.296 108.405 39.304V45.94C108.405 46.8733 108.601 48.1987 108.993 49.916V50H104.905V49.916C105.297 48.1987 105.493 46.8733 105.493 45.94ZM120.332 36.14V36.056H123.804V45.94C123.804 46.332 123.832 46.752 123.888 47.2C123.944 47.648 124 48.0213 124.056 48.32C124.112 48.6187 124.177 48.9453 124.252 49.3C124.327 49.636 124.373 49.8413 124.392 49.916V50H120.332V49.916C120.724 48.1987 120.92 46.8733 120.92 45.94L120.948 40.116C120.948 39.276 120.743 37.9507 120.332 36.14ZM120.22 31.1C120.22 30.54 120.416 30.0733 120.808 29.7C121.2 29.308 121.676 29.112 122.236 29.112C122.796 29.112 123.272 29.308 123.664 29.7C124.056 30.0733 124.252 30.54 124.252 31.1C124.252 31.6413 124.056 32.0987 123.664 32.472C123.253 32.864 122.777 33.06 122.236 33.06C121.695 33.06 121.219 32.8733 120.808 32.5C120.416 32.108 120.22 31.6413 120.22 31.1ZM125.913 36.14V36.056H131.009V36.14C130.841 36.5133 130.747 36.8587 130.729 37.176C130.729 37.4747 130.729 37.6333 130.729 37.652C130.729 38.212 130.869 38.8933 131.149 39.696L134.313 47.284L137.309 39.724C137.533 38.9773 137.645 38.3333 137.645 37.792C137.645 37.7173 137.635 37.5213 137.617 37.204C137.598 36.8867 137.505 36.532 137.337 36.14V36.056H140.221V36.14C139.437 37.5027 138.933 38.4827 138.709 39.08L134.369 50H132.325L128.041 39.78C127.313 38.1187 126.603 36.9053 125.913 36.14ZM142.455 37.848C143.687 36.5413 145.265 35.888 147.187 35.888C149.091 35.888 150.566 36.5227 151.611 37.792C152.675 39.0427 153.207 40.648 153.207 42.608H143.743C143.818 44.3067 144.257 45.6693 145.059 46.696C145.862 47.7227 146.991 48.236 148.447 48.236C150.034 48.236 151.574 47.5547 153.067 46.192L153.151 46.276C152.666 47.4147 151.901 48.3573 150.855 49.104C149.81 49.8507 148.597 50.224 147.215 50.224C145.367 50.224 143.799 49.58 142.511 48.292C141.223 46.9853 140.579 45.2307 140.579 43.028C140.579 40.8813 141.205 39.1547 142.455 37.848ZM143.743 41.88L150.211 41.404C150.174 40.0413 149.894 38.9493 149.371 38.128C148.867 37.288 148.13 36.868 147.159 36.868C146.077 36.868 145.246 37.344 144.667 38.296C144.089 39.2293 143.781 40.424 143.743 41.88ZM155.163 36.14V36.056H158.663V38.436C159.241 37.4093 159.913 36.7093 160.679 36.336C161.463 35.9627 162.172 35.776 162.807 35.776C163.292 35.776 163.796 35.86 164.319 36.028L163.871 39.276H163.759C163.292 38.8653 162.835 38.576 162.387 38.408C161.939 38.24 161.519 38.156 161.127 38.156C160.903 38.156 160.567 38.1933 160.119 38.268C159.689 38.3427 159.204 38.6413 158.663 39.164V45.94C158.663 46.8733 158.859 48.1987 159.251 49.916V50H155.163V49.916C155.555 48.1987 155.751 46.8733 155.751 45.94V40.116C155.751 39.1827 155.555 37.8573 155.163 36.14ZM167.036 36.952C168.025 36.2427 169.295 35.888 170.844 35.888C172.412 35.888 174.017 36.2707 175.66 37.036V40.116H175.548C173.756 37.9693 172.113 36.896 170.62 36.896C169.911 36.896 169.304 37.0733 168.8 37.428C168.296 37.764 168.044 38.2493 168.044 38.884C168.044 39.5187 168.315 40.004 168.856 40.34C169.397 40.6573 170.312 41.0307 171.6 41.46C171.637 41.46 171.665 41.4693 171.684 41.488C171.721 41.488 171.759 41.4973 171.796 41.516C173.327 42.0387 174.428 42.636 175.1 43.308C175.791 43.98 176.136 44.848 176.136 45.912C176.136 47.312 175.641 48.3853 174.652 49.132C173.663 49.86 172.44 50.224 170.984 50.224C169.416 50.224 167.671 49.7853 165.748 48.908V45.632H165.832C166.448 46.3227 166.98 46.892 167.428 47.34C167.876 47.7693 168.445 48.1893 169.136 48.6C169.845 48.992 170.527 49.188 171.18 49.188C171.889 49.188 172.496 49.0013 173 48.628C173.523 48.236 173.784 47.6947 173.784 47.004C173.784 46.332 173.513 45.8093 172.972 45.436C172.431 45.0627 171.488 44.6427 170.144 44.176C168.595 43.6533 167.437 43.0747 166.672 42.44C165.925 41.8053 165.552 40.9653 165.552 39.92C165.552 38.6693 166.047 37.68 167.036 36.952ZM178.356 36.14V36.056H181.828V45.94C181.828 46.332 181.856 46.752 181.912 47.2C181.968 47.648 182.024 48.0213 182.08 48.32C182.136 48.6187 182.201 48.9453 182.276 49.3C182.35 49.636 182.397 49.8413 182.416 49.916V50H178.356V49.916C178.748 48.1987 178.944 46.8733 178.944 45.94L178.972 40.116C178.972 39.276 178.766 37.9507 178.356 36.14ZM178.244 31.1C178.244 30.54 178.44 30.0733 178.832 29.7C179.224 29.308 179.7 29.112 180.26 29.112C180.82 29.112 181.296 29.308 181.688 29.7C182.08 30.0733 182.276 30.54 182.276 31.1C182.276 31.6413 182.08 32.0987 181.688 32.472C181.277 32.864 180.801 33.06 180.26 33.06C179.718 33.06 179.242 32.8733 178.832 32.5C178.44 32.108 178.244 31.6413 178.244 31.1ZM184.02 36.28C185.177 35.9067 186.111 35.3653 186.82 34.656C187.529 33.928 188.145 33.0227 188.668 31.94H188.948V36.056H192.84V37.12H188.948L188.976 45.912C188.976 47.48 189.648 48.264 190.992 48.264C191.813 48.264 192.644 47.9933 193.484 47.452C193.111 48.2733 192.569 48.9453 191.86 49.468C191.169 49.972 190.367 50.224 189.452 50.224C188.369 50.224 187.529 49.8693 186.932 49.16C186.353 48.4507 186.064 47.4893 186.064 46.276V37.12H184.02V36.28ZM193.835 36.14V36.056H198.959V36.14C198.791 36.532 198.698 36.8773 198.679 37.176C198.679 37.456 198.679 37.6053 198.679 37.624C198.679 38.184 198.819 38.8653 199.099 39.668L202.151 46.696L204.923 39.724C205.166 38.9587 205.287 38.3053 205.287 37.764C205.287 37.708 205.278 37.5213 205.259 37.204C205.24 36.8867 205.147 36.532 204.979 36.14V36.056H207.835V36.14C207.256 37.0173 206.743 37.9973 206.295 39.08L200.947 52.464C200.126 54.536 198.838 55.572 197.083 55.572C196.336 55.572 195.506 55.3853 194.591 55.012L195.207 52.156L195.263 52.128C195.674 52.52 196.094 52.8373 196.523 53.08C196.971 53.3227 197.326 53.4627 197.587 53.5C197.848 53.5373 198.026 53.556 198.119 53.556C198.455 53.556 198.8 53.4347 199.155 53.192C199.51 52.968 199.808 52.5573 200.051 51.96L200.667 50.392L195.963 39.724C195.216 38.0253 194.507 36.8307 193.835 36.14Z" fill="white"/>
<g clip-path="url(#clip0_154_786)">
<path d="M0.631769 45.2943C3.97542 46.2979 7.36242 47.1271 10.7767 47.7721C14.1921 48.4009 17.6435 48.8292 21.0949 48.9226C22.82 48.9661 24.5438 48.925 26.2528 48.7694C27.9618 48.62 29.6596 48.366 31.3178 47.9651C34.6305 47.1719 37.807 45.816 40.5017 43.7479L40.5067 43.7429C40.82 43.5026 41.2671 43.5661 41.5061 43.8786C41.6411 44.0567 41.6794 44.2833 41.6299 44.485C41.4231 45.44 41.5841 46.3315 42.1649 46.766C42.7321 47.2329 43.703 47.2778 44.4795 46.9167C45.2708 46.5631 45.8541 45.8272 46.1166 44.937C46.3841 44.043 46.3531 43.0133 46.15 42.001C46.1104 41.8591 46.1228 41.7171 46.1773 41.5914L46.2095 41.5154L47.0999 39.4386C47.412 38.7401 47.7463 38.0341 48.129 37.3381C48.8869 35.9423 49.9172 34.6474 51.1098 33.5841C53.5271 31.4599 56.3742 30.1152 59.2175 28.9921C62.077 27.874 65.0144 27.056 67.9581 26.3176C70.9042 25.5842 73.8776 24.9916 76.8572 24.4674C77.0578 24.4325 77.251 24.5682 77.2869 24.7699C77.3203 24.9654 77.1965 25.1522 77.007 25.1995C74.0757 25.9092 71.1606 26.6675 68.2739 27.5029C65.3897 28.3409 62.5414 29.2972 59.7921 30.4339C57.0627 31.5869 54.3952 32.9628 52.2986 34.9076C51.2448 35.8713 50.3742 36.982 49.6274 38.2159C49.2497 38.8322 48.9092 39.4846 48.5661 40.1533C48.2095 40.8144 47.8689 41.5017 47.4702 42.1691L47.5308 41.6822C47.8157 42.8352 47.9469 44.1027 47.6014 45.3653C47.2856 46.6203 46.3903 47.8156 45.142 48.3784C44.5253 48.6648 43.8392 48.8117 43.1432 48.7657C42.451 48.7208 41.7352 48.4805 41.1581 48.0012C40.576 47.5268 40.2082 46.8059 40.0968 46.1099C39.9779 45.4076 40.0832 44.7402 40.2516 44.1339L41.3785 44.8685C38.581 47.1993 35.1841 48.7308 31.6894 49.5563C28.1872 50.398 24.5859 50.6097 21.0392 50.4615C17.4875 50.3171 13.9692 49.8178 10.5154 49.0807C7.05654 48.3535 3.66335 47.3699 0.33084 46.2393C0.073255 46.1522 -0.0654447 45.872 0.0212426 45.6143C0.106692 45.3615 0.375422 45.2221 0.626815 45.2968L0.631769 45.2943Z" fill="white"/>
<path d="M71.1394 20.9475L70.7048 21.1293C70.7147 21.158 70.7271 21.2526 70.7159 21.3223C70.706 21.3983 70.6837 21.4755 70.6515 21.5502C70.5834 21.7008 70.4732 21.8465 70.3419 21.976C70.0769 22.2362 69.7339 22.4404 69.3772 22.6122C68.6589 22.9559 67.8713 23.1813 67.08 23.3643C66.68 23.4589 66.2849 23.5274 65.8688 23.6133C65.4589 23.698 65.0515 23.7901 64.6466 23.8897C63.8366 24.0902 63.0329 24.318 62.2366 24.572C59.0602 25.5905 55.9865 26.9963 53.2001 28.8839C50.4199 30.764 47.9295 33.1683 46.1388 36.0756C46.0806 36.1702 46.0286 36.2723 45.9704 36.3694C46.0261 36.2337 46.0757 36.0943 46.1351 35.9586C47.4329 32.984 49.4726 30.3543 51.8911 28.1629C54.3147 25.9653 57.1035 24.1724 60.0571 22.7405C60.7964 22.3831 61.5469 22.0482 62.3085 21.7407C62.6887 21.5875 63.0713 21.4406 63.4577 21.3036C63.8379 21.1679 64.2441 21.0359 64.6329 20.8828C65.4168 20.5802 66.1908 20.2366 66.9116 19.7585C67.2682 19.5181 67.6137 19.2417 67.8961 18.8782C68.036 18.6951 68.1586 18.4872 68.2267 18.2469C68.2602 18.1274 68.28 17.9979 68.275 17.8671C68.2676 17.7302 68.2552 17.6131 68.1735 17.4513L67.7636 17.6878C67.776 17.714 67.7995 17.8074 67.797 17.8758C67.797 17.9518 67.7846 18.0327 67.7611 18.1112C67.7128 18.2705 67.6199 18.4274 67.5048 18.5706C67.2732 18.862 66.9586 19.106 66.6255 19.3227C65.9543 19.751 65.2001 20.0722 64.436 20.3511C64.0509 20.4931 63.6645 20.6089 63.2645 20.7433C62.8682 20.8778 62.4757 21.0197 62.0843 21.1692C61.3041 21.4667 60.5351 21.7917 59.776 22.1403C56.7456 23.5411 53.8676 25.3129 51.3289 27.5267C48.7964 29.7343 46.6168 32.4262 45.1927 35.5315C45.1456 35.6336 45.106 35.7394 45.0602 35.8428C45.0998 35.6996 45.132 35.5564 45.1741 35.4157C46.1004 32.3042 47.8057 29.4454 49.9407 26.9739C52.0806 24.4961 54.6305 22.3732 57.3883 20.5902C58.0781 20.1457 58.7828 19.7211 59.501 19.3227C59.8602 19.1234 60.223 18.9317 60.5883 18.7474C60.9487 18.5656 61.3351 18.3863 61.7041 18.1871C62.4459 17.7899 63.1729 17.3541 63.8292 16.7914C64.1537 16.5075 64.4645 16.1937 64.701 15.7965C64.8162 15.5985 64.9128 15.3782 64.9524 15.1304C64.9698 15.0071 64.9747 14.8776 64.9549 14.7469C64.9301 14.6124 64.9041 14.4979 64.8051 14.3472L64.4261 14.6298C64.4422 14.6548 64.4769 14.7444 64.4818 14.8129C64.4918 14.8888 64.488 14.9698 64.4744 15.0507C64.4459 15.215 64.3729 15.3819 64.2763 15.54C64.0794 15.8575 63.7983 16.1389 63.4948 16.3929C62.8806 16.9009 62.171 17.3093 61.4465 17.6816C61.0812 17.8684 60.7134 18.0327 60.3308 18.2145C59.9531 18.3963 59.5815 18.5856 59.2125 18.781C58.4744 19.172 57.75 19.5891 57.0379 20.0286C54.2007 21.7892 51.558 23.9009 49.3079 26.4098C47.0627 28.9112 45.2249 31.8497 44.1859 35.1069C44.1524 35.214 44.1264 35.3236 44.093 35.4319C44.1153 35.285 44.1301 35.1393 44.1537 34.9936C44.6961 31.7924 46.041 28.7444 47.8614 26.0313C49.6856 23.3095 51.9592 20.8903 54.4806 18.7823C55.1122 18.2556 55.7599 17.7488 56.4249 17.2657C56.7568 17.0242 57.0924 16.7901 57.4329 16.561C57.7698 16.3369 58.1314 16.1103 58.4719 15.8687C59.158 15.3831 59.8292 14.8614 60.4125 14.2239C60.6998 13.9027 60.971 13.5516 61.1568 13.1307C61.2484 12.9191 61.3165 12.6875 61.324 12.4372C61.3289 12.3115 61.3165 12.1832 61.2806 12.0562C61.2397 11.9242 61.2001 11.8134 61.0825 11.6765L60.7419 12.0052C60.7592 12.0263 60.8051 12.1122 60.8187 12.1795C60.8373 12.2529 60.8435 12.3326 60.841 12.416C60.8323 12.5829 60.7791 12.7572 60.7023 12.9253C60.5475 13.264 60.3023 13.5777 60.0298 13.8678C59.4825 14.4468 58.8274 14.9399 58.1524 15.3968C57.8131 15.6272 57.4688 15.8339 57.111 16.0642C56.758 16.2908 56.4113 16.5237 56.0682 16.7627C55.3822 17.2421 54.7159 17.7451 54.0633 18.2668C51.4602 20.3636 49.0924 22.7828 47.1617 25.5482C45.2373 28.3061 43.7698 31.4475 43.1345 34.8081C43.1122 34.9201 43.0998 35.0347 43.08 35.148C43.0849 34.9986 43.08 34.8504 43.0887 34.701C43.2397 31.4562 44.2057 28.2675 45.6843 25.3502C47.163 22.4255 49.1283 19.746 51.3747 17.3442C51.9382 16.7453 52.5202 16.1626 53.1209 15.601C53.423 15.3196 53.7264 15.0457 54.0373 14.778C54.3431 14.5141 54.6763 14.2464 54.9846 13.9625C55.6075 13.3972 56.2094 12.797 56.7109 12.0923C56.9586 11.74 57.184 11.3565 57.3178 10.9157C57.3822 10.6953 57.423 10.4575 57.4007 10.2085C57.3883 10.084 57.3623 9.95696 57.3116 9.83618C57.2546 9.70918 57.2013 9.60708 57.0688 9.48381L56.7692 9.85112C56.789 9.87104 56.8459 9.95073 56.867 10.0167C56.8942 10.0864 56.9116 10.1661 56.9178 10.2483C56.9301 10.4139 56.8992 10.5932 56.8435 10.77C56.7295 11.1249 56.5239 11.4685 56.2911 11.7873C55.8168 12.4297 55.2274 13 54.6131 13.5366C54.3048 13.8068 53.9877 14.0546 53.6608 14.326C53.3376 14.5925 53.0218 14.8677 52.7109 15.1466C52.0893 15.7056 51.4862 16.2858 50.9029 16.8847C48.5723 19.2853 46.5165 21.9772 44.9363 24.958C43.3599 27.9301 42.2849 31.2284 42.0608 34.64C42.0534 34.7533 42.0546 34.8666 42.0484 34.9811C42.0348 34.833 42.0125 34.6873 42.0026 34.5391C41.7586 31.3006 42.3308 28.016 43.4441 24.9393C44.5574 21.8552 46.1834 18.9541 48.1227 16.2958C48.6094 15.6309 49.1159 14.9822 49.6435 14.3509C49.9085 14.0359 50.1784 13.7247 50.4546 13.4221C50.7258 13.122 51.023 12.8145 51.2955 12.4957C51.8453 11.8595 52.3692 11.1896 52.7803 10.4289C52.9822 10.0478 53.1605 9.64194 53.2397 9.18748C53.2769 8.95962 53.288 8.71807 53.236 8.47279C53.2088 8.35077 53.1667 8.22874 53.101 8.11419C53.0305 7.99466 52.9648 7.89879 52.8187 7.79545L52.5673 8.19762C52.5896 8.2138 52.654 8.28602 52.6849 8.34828C52.7209 8.41427 52.7469 8.49271 52.763 8.57239C52.7952 8.7355 52.7865 8.91729 52.7531 9.10032C52.6825 9.46638 52.5202 9.83244 52.327 10.1786C51.9332 10.8734 51.4168 11.5133 50.8732 12.1197C50.5995 12.426 50.3147 12.7099 50.0224 13.0199C49.7351 13.325 49.4552 13.635 49.1791 13.9513C48.6292 14.5813 48.1029 15.2325 47.5964 15.8999C45.5741 18.5644 43.8589 21.4879 42.6527 24.6418C41.4466 27.7869 40.7803 31.1923 40.9722 34.6064C40.9784 34.7209 40.9933 34.8342 41.0007 34.9488C40.9685 34.8043 40.9301 34.6599 40.9017 34.5142C40.2664 31.328 40.4373 27.9998 41.1692 24.8086C41.901 21.6112 43.163 18.5345 44.7642 15.6583C45.1667 14.9386 45.5902 14.2314 46.0385 13.5416C46.2639 13.1967 46.493 12.8543 46.7295 12.5194C46.9636 12.1882 47.2212 11.8483 47.4515 11.4972C47.9196 10.7986 48.3592 10.0678 48.6763 9.26218C48.8311 8.85877 48.9574 8.43419 48.9822 7.9735C48.9921 7.7444 48.9735 7.50285 48.8918 7.26628C48.8509 7.14799 48.7939 7.03344 48.7159 6.92636C48.6317 6.81928 48.5549 6.72963 48.3976 6.64497L48.1945 7.07577C48.2193 7.08947 48.2911 7.15297 48.3308 7.21025C48.3753 7.2725 48.4088 7.34596 48.4348 7.4244C48.4868 7.58253 48.4992 7.76432 48.488 7.9486C48.4633 8.32088 48.3469 8.70313 48.197 9.07044C47.8911 9.80879 47.4565 10.506 46.9896 11.1759C46.7555 11.5133 46.5066 11.8308 46.254 12.1732C46.0051 12.5107 45.7648 12.8531 45.5308 13.2017C45.0614 13.894 44.6168 14.6049 44.1945 15.3296C42.5103 18.2232 41.163 21.3348 40.3469 24.6119C39.5308 27.8815 39.2818 31.3429 39.8874 34.7085C39.9072 34.8193 39.9345 34.9289 39.9568 35.0397C39.9085 34.9002 39.8527 34.7633 39.8069 34.6238C38.7902 31.5409 38.5561 28.2152 38.8942 24.9593C39.2335 21.6958 40.1116 18.4859 41.3537 15.4354C41.6657 14.6709 42.0013 13.9189 42.363 13.1781C42.5438 12.807 42.7308 12.4409 42.9264 12.0786C43.1171 11.7213 43.3314 11.3515 43.5196 10.9755C43.8998 10.2234 44.2466 9.44646 44.4633 8.60726C44.5698 8.1889 44.6428 7.75187 44.6106 7.29242C44.5921 7.06208 44.5438 6.82426 44.436 6.60014C44.3803 6.49057 44.3097 6.381 44.2193 6.28513C44.1227 6.18677 44.0348 6.10957 43.8676 6.04482L43.7202 6.49431C43.7462 6.50676 43.8267 6.55905 43.8713 6.61259C43.9233 6.66862 43.9654 6.7371 44.0001 6.81181C44.0707 6.96247 44.1066 7.14176 44.1165 7.32729C44.1363 7.69957 44.067 8.09178 43.963 8.47528C43.7487 9.246 43.402 9.99182 43.0193 10.7127C42.8286 11.0763 42.6193 11.4224 42.41 11.7935C42.2057 12.1596 42.0063 12.5281 41.8156 12.9016C41.4342 13.6475 41.0788 14.407 40.7481 15.1765C39.428 18.2556 38.467 21.5091 38.0546 24.8622C37.6435 28.2065 37.8144 31.6729 38.8224 34.9388C38.8558 35.0471 38.8967 35.153 38.9326 35.2613C38.867 35.1281 38.7952 34.9998 38.732 34.8654C37.35 31.9294 36.7147 28.6572 36.6565 25.3839C36.597 22.1042 37.0812 18.8109 37.9431 15.6297C38.1611 14.834 38.4014 14.0446 38.6701 13.2665C38.8051 12.8767 38.9462 12.4908 39.0948 12.106C39.2435 11.7287 39.4094 11.334 39.5506 10.9381C39.8379 10.1462 40.088 9.33067 40.2007 8.47279C40.2552 8.04322 40.275 7.59996 40.1871 7.14799C40.1425 6.92387 40.0657 6.69353 39.9308 6.4831C39.8627 6.37976 39.7797 6.2789 39.6781 6.19548C39.5692 6.11206 39.4726 6.04358 39.2992 6L39.2063 6.46567C39.2348 6.4719 39.3202 6.51548 39.371 6.56279C39.428 6.61259 39.48 6.67609 39.5233 6.74458C39.6113 6.88527 39.6682 7.05834 39.7017 7.24137C39.7673 7.60744 39.7462 8.00836 39.688 8.40057C39.5692 9.18997 39.3153 9.97314 39.023 10.7376C38.8781 11.1224 38.7122 11.4909 38.5512 11.8844C38.3914 12.2716 38.2391 12.6638 38.0967 13.0573C37.8069 13.8454 37.5469 14.6423 37.3116 15.4466C36.3741 18.6652 35.8156 22.0109 35.8119 25.3901C35.8082 28.7593 36.3976 32.1797 37.7945 35.2974C37.8404 35.4008 37.8949 35.4991 37.9419 35.6012C37.8602 35.4779 37.7735 35.3584 37.6955 35.2352C35.9679 32.4909 34.9401 29.3209 34.4868 26.0786C34.0298 22.8301 34.1091 19.502 34.5797 16.2398C34.6998 15.423 34.8435 14.6112 35.0156 13.8056C35.1023 13.4022 35.1952 13.0012 35.2967 12.6028C35.397 12.2094 35.5147 11.7985 35.6075 11.3876C35.7958 10.5658 35.9456 9.72661 35.9543 8.86001C35.9555 8.42796 35.9221 7.98595 35.7797 7.54767C35.7066 7.32853 35.6051 7.11188 35.4441 6.91889C35.3648 6.82426 35.2695 6.73586 35.158 6.66489C35.0404 6.59516 34.9388 6.53913 34.7605 6.51672L34.7258 6.99111C34.7543 6.9936 34.8435 7.02721 34.9004 7.0683C34.9636 7.10939 35.0205 7.16542 35.0726 7.23017C35.1766 7.35841 35.2546 7.52401 35.3091 7.70082C35.4193 8.05816 35.4453 8.4566 35.4366 8.85379C35.4144 9.65315 35.2583 10.4612 35.0602 11.2544C34.9623 11.6528 34.8422 12.0388 34.7295 12.4497C34.6181 12.8543 34.5153 13.2615 34.4199 13.6699C34.2292 14.4867 34.0682 15.3097 33.9308 16.1377C33.3908 19.4459 33.2422 22.8376 33.6484 26.1894C34.0546 29.535 35.054 32.857 36.8174 35.7805C36.8769 35.8789 36.9438 35.9723 37.0032 36.0694C36.9066 35.9561 36.8038 35.8465 36.7097 35.7307C34.6639 33.2193 33.2596 30.1987 32.4137 27.0361C31.5679 23.8673 31.2447 20.5553 31.3153 17.2583C31.3351 16.434 31.3784 15.6097 31.4527 14.788C31.4887 14.3758 31.5332 13.9687 31.5853 13.5603C31.636 13.1581 31.7054 12.7348 31.7462 12.3164C31.8329 11.4772 31.88 10.6268 31.7834 9.76521C31.7326 9.33565 31.6459 8.89986 31.4527 8.48275C31.3537 8.27357 31.2261 8.07062 31.0416 7.90004C30.9512 7.81537 30.8459 7.74066 30.727 7.68214C30.6032 7.62736 30.493 7.58502 30.3147 7.58502L30.3357 8.05816C30.3654 8.05816 30.4583 8.08058 30.519 8.11419C30.5859 8.14781 30.6503 8.19637 30.7097 8.25365C30.8286 8.36944 30.9252 8.52259 31.002 8.69193C31.1543 9.03308 31.2286 9.42529 31.267 9.82124C31.3425 10.6169 31.2843 11.4386 31.184 12.2492C31.1345 12.6564 31.0639 13.056 31.0007 13.4769C30.9401 13.8927 30.8868 14.3086 30.8422 14.727C30.7506 15.5612 30.6899 16.3991 30.6565 17.2359C30.5202 20.5852 30.784 23.9694 31.5927 27.249C32.4001 30.5187 33.7958 33.6937 35.901 36.3794C35.9716 36.4703 36.0496 36.5562 36.1227 36.6459C36.0125 36.5438 35.8973 36.4479 35.7896 36.3433C33.4527 34.1009 31.693 31.2745 30.4719 28.2389C29.2484 25.1983 28.5252 21.9498 28.197 18.669C28.1153 17.8485 28.0608 17.0254 28.0336 16.2012C28.0212 15.7878 28.015 15.3757 28.0175 14.9648C28.0199 14.5589 28.036 14.1318 28.0261 13.7097C28.0113 12.8668 27.9543 12.0164 27.7549 11.1734C27.6509 10.7551 27.5134 10.333 27.2695 9.94201C27.1481 9.74902 26.9945 9.56101 26.7927 9.41533C26.6911 9.34187 26.5797 9.27962 26.4546 9.23728C26.3246 9.19744 26.2106 9.1688 26.0323 9.19121L26.1116 9.65937C26.1401 9.65688 26.2354 9.66685 26.2998 9.69175C26.3704 9.71789 26.4422 9.75774 26.5079 9.80754C26.6404 9.90715 26.7543 10.0478 26.8496 10.206C27.0428 10.5247 27.1654 10.9045 27.2509 11.293C27.423 12.0736 27.4639 12.8954 27.4627 13.7134C27.4639 14.1243 27.4404 14.5277 27.4317 14.9548C27.4205 15.3744 27.4181 15.794 27.4243 16.2136C27.4366 17.0528 27.4763 17.8908 27.5444 18.7275C27.8156 22.0694 28.4868 25.3951 29.688 28.5502C30.8856 31.6978 32.6552 34.6773 35.0713 37.0854C35.1518 37.1663 35.2385 37.2398 35.3202 37.3195C35.1989 37.2336 35.075 37.1526 34.9562 37.063C32.3654 35.1243 30.275 32.5358 28.6961 29.6733C27.1122 26.8045 26.0014 23.6681 25.2769 20.452C25.0973 19.6476 24.9413 18.8371 24.8162 18.0228C24.7531 17.6156 24.6961 17.2072 24.649 16.7976C24.6032 16.3954 24.5661 15.9683 24.5066 15.5512C24.389 14.7158 24.2305 13.879 23.9295 13.0672C23.7747 12.6638 23.5877 12.2629 23.2979 11.9056C23.1531 11.7287 22.9797 11.5619 22.7605 11.4411C22.6503 11.3801 22.5314 11.3328 22.4026 11.3054C22.2676 11.283 22.1524 11.2693 21.9778 11.3116L22.114 11.7661C22.1413 11.7599 22.2379 11.7586 22.3048 11.7761C22.3778 11.7935 22.4534 11.8234 22.524 11.8645C22.6676 11.9466 22.7976 12.0724 22.9128 12.2181C23.1419 12.5107 23.3091 12.873 23.4416 13.2478C23.7054 14.0023 23.8466 14.8116 23.9456 15.6247C23.9964 16.0331 24.0224 16.4365 24.0633 16.8598C24.1029 17.2782 24.1524 17.6953 24.2094 18.1112C24.3221 18.9429 24.4657 19.7697 24.6329 20.5914C25.3079 23.8735 26.3778 27.0934 27.9506 30.0779C29.5221 33.055 31.6397 35.7955 34.3295 37.8897C34.4174 37.9582 34.5116 38.0205 34.6007 38.0889C34.4719 38.0192 34.3394 37.9545 34.2119 37.8798C31.4044 36.2723 29.0168 33.9602 27.1035 31.3106C25.184 28.6572 23.7004 25.6814 22.5921 22.5786C22.3159 21.8004 22.0633 21.0173 21.8404 20.2229C21.7277 19.8257 21.6236 19.4273 21.5271 19.0276C21.4317 18.6329 21.3438 18.2133 21.2348 17.8086C21.0168 16.9943 20.7568 16.1825 20.3592 15.4143C20.1586 15.032 19.9233 14.656 19.5914 14.336C19.4255 14.1791 19.2323 14.0347 19.002 13.9401C18.8868 13.894 18.7617 13.8604 18.6305 13.8504C18.493 13.8442 18.3766 13.8454 18.2094 13.9089L18.3989 14.3435C18.4249 14.3323 18.5202 14.3198 18.5896 14.3273C18.6651 14.336 18.7419 14.3572 18.8187 14.3895C18.971 14.453 19.1159 14.5614 19.2472 14.6933C19.511 14.9561 19.7215 15.296 19.8986 15.6496C20.2515 16.3655 20.4905 17.1537 20.6862 17.9456C20.7853 18.3453 20.8608 18.7424 20.9524 19.1583C21.0428 19.5692 21.1419 19.9751 21.2484 20.3823C21.4627 21.1928 21.7029 21.9972 21.9692 22.7928C23.0379 25.9678 24.4893 29.032 26.4137 31.8011C28.3345 34.564 30.7679 37.0256 33.6905 38.7738C33.7871 38.8323 33.8887 38.8821 33.9865 38.9394C33.849 38.8858 33.7103 38.8385 33.5741 38.78C30.5933 37.5274 27.9431 35.5253 25.7215 33.1297C23.4949 30.7316 21.662 27.9587 20.1859 25.0165C19.8181 24.2794 19.4726 23.5299 19.1531 22.7704C18.9945 22.3906 18.841 22.0084 18.6973 21.6236C18.5549 21.2439 18.4175 20.8392 18.2589 20.4482C17.9444 19.6676 17.589 18.8943 17.101 18.1797C16.8546 17.8248 16.5747 17.4811 16.2082 17.2035C16.0249 17.0653 15.8156 16.947 15.5741 16.8822C15.4552 16.8511 15.3277 16.8324 15.1964 16.8387C15.0602 16.8499 14.9438 16.8636 14.7853 16.947L15.0255 17.3554C15.0515 17.3417 15.1444 17.3168 15.2137 17.318C15.2893 17.3168 15.3685 17.3292 15.4478 17.3517C15.6063 17.3977 15.7648 17.4861 15.9109 17.6007C16.2044 17.8298 16.4534 18.1423 16.6726 18.4723C17.1097 19.1396 17.4416 19.8917 17.7339 20.6562C17.8812 21.0397 18.0038 21.4244 18.145 21.8253C18.2849 22.2225 18.4323 22.6147 18.5884 23.0032C18.8967 23.7826 19.2336 24.5509 19.5952 25.3067C21.0391 28.3298 22.8521 31.1923 25.0973 33.7049C27.3376 36.2126 30.0521 38.3554 33.1654 39.7325C33.2695 39.7786 33.3747 39.8159 33.4788 39.8607C33.3363 39.8234 33.1927 39.7935 33.0515 39.7537C29.9407 38.8771 27.0676 37.2149 24.5723 35.1094C22.0707 33.0014 19.9159 30.4739 18.0942 27.7334C17.6397 27.0473 17.2075 26.3463 16.7989 25.6304C16.5933 25.273 16.3964 24.912 16.2069 24.5471C16.0199 24.1885 15.8342 23.8026 15.6298 23.4353C15.2224 22.6982 14.7753 21.9735 14.2057 21.3236C13.9184 21.0023 13.5989 20.696 13.2026 20.4669C13.002 20.3524 12.7803 20.2602 12.5339 20.2254C12.4113 20.2079 12.2812 20.2067 12.1537 20.2291C12.0187 20.2565 11.9048 20.2839 11.7586 20.3872L12.0484 20.762C12.0719 20.7458 12.1599 20.7085 12.2292 20.7022C12.3023 20.691 12.3853 20.6923 12.4657 20.706C12.628 20.7309 12.7964 20.8006 12.9549 20.8965C13.2732 21.0882 13.5592 21.3659 13.8168 21.666C14.332 22.2761 14.7531 22.982 15.1345 23.7042C15.3264 24.0678 15.4949 24.4338 15.6843 24.8161C15.8701 25.1909 16.0658 25.5644 16.2664 25.9305C16.6688 26.6663 17.0961 27.3872 17.5456 28.0945C19.3462 30.9159 21.4924 33.5368 24.0249 35.7556C26.5524 37.9682 29.5072 39.7649 32.763 40.751C32.8695 40.7834 32.9772 40.807 33.0825 40.8381C32.9388 40.8195 32.7939 40.807 32.6515 40.7846C29.4577 40.2953 26.4038 38.9954 23.6719 37.2136C20.9339 35.4281 18.4893 33.1845 16.3493 30.6868C15.8144 30.0605 15.2979 29.418 14.8063 28.7581C14.5599 28.4281 14.3209 28.0945 14.088 27.7545C13.8577 27.4221 13.6274 27.0623 13.3797 26.7236C12.8856 26.0413 12.3543 25.3776 11.7091 24.8024C11.3859 24.5185 11.0317 24.2533 10.6094 24.0728C10.3989 23.9868 10.1673 23.9221 9.91838 23.9171C9.79454 23.9171 9.66575 23.9296 9.54067 23.9682C9.4094 24.0093 9.30042 24.0528 9.16792 24.1736L9.4998 24.511C9.52086 24.4924 9.60507 24.4463 9.67318 24.4301C9.74501 24.4102 9.8255 24.4027 9.90847 24.4052C10.0744 24.4102 10.2478 24.4587 10.4162 24.5334C10.7555 24.6841 11.0738 24.9257 11.3648 25.1933C11.9506 25.735 12.4534 26.3849 12.919 27.0535C13.1555 27.391 13.3673 27.7346 13.6001 28.0895C13.8317 28.4394 14.0695 28.7842 14.3134 29.1254C14.8014 29.8065 15.314 30.4689 15.8466 31.1151C17.9753 33.6962 20.4224 36.0333 23.2063 37.9246C25.9828 39.8122 29.132 41.2328 32.4843 41.8118C32.597 41.8317 32.7097 41.8429 32.8224 41.8604C32.6738 41.8604 32.5264 41.8654 32.3791 41.8604C29.1481 41.7658 25.9605 40.8493 23.0329 39.4162C20.0992 37.9781 17.3995 36.0519 14.9735 33.8344C14.3667 33.2778 13.7772 32.7051 13.2088 32.1099C12.9252 31.8123 12.6453 31.511 12.3741 31.2035C12.1066 30.8997 11.8342 30.5722 11.5469 30.2647C10.9747 29.6496 10.3667 29.0557 9.65708 28.5626C9.30166 28.3198 8.91776 28.1007 8.47689 27.9749C8.25646 27.9127 8.01869 27.8766 7.77101 27.9015C7.64717 27.9164 7.52086 27.945 7.40073 27.9986C7.27813 28.0559 7.17411 28.1119 7.0577 28.2488L7.42674 28.5427C7.44532 28.5215 7.52333 28.4643 7.58773 28.4406C7.65708 28.4107 7.73634 28.3933 7.81931 28.3858C7.98401 28.3721 8.16234 28.3995 8.33943 28.4518C8.69361 28.5589 9.03788 28.7606 9.3611 28.9897C10.0063 29.4554 10.5859 30.0381 11.1283 30.6469C11.4044 30.952 11.6546 31.267 11.9308 31.5907C12.202 31.9107 12.4806 32.2245 12.763 32.532C13.3314 33.1471 13.9184 33.7423 14.5252 34.3188C16.95 36.6185 19.6633 38.6393 22.6552 40.1757C25.641 41.7085 28.9388 42.7332 32.3357 42.8963C32.4472 42.9025 32.5599 42.9 32.6726 42.9025C32.5277 42.92 32.3828 42.9436 32.2366 42.9561C29.0193 43.2586 25.7438 42.7407 22.6639 41.6761C19.5791 40.6103 16.6664 39.0265 13.9865 37.1227C13.3178 36.6459 12.6627 36.1491 12.0274 35.6274C11.7091 35.3684 11.3958 35.1019 11.0887 34.8292C10.7865 34.5615 10.4757 34.2689 10.1537 33.9988C9.51095 33.4584 8.83479 32.9417 8.0707 32.5407C7.68928 32.344 7.28061 32.1734 6.8286 32.1012C6.60321 32.0676 6.36172 32.0601 6.119 32.1174C5.99764 32.146 5.87628 32.1909 5.76358 32.2569C5.64717 32.3303 5.55306 32.3988 5.45151 32.547L5.85522 32.7935C5.87132 32.7686 5.94191 32.7038 6.00259 32.6715C6.06823 32.6341 6.14501 32.6067 6.2255 32.5905C6.38649 32.5569 6.56854 32.5594 6.74934 32.5918C7.1159 32.6553 7.48123 32.8122 7.82922 33.0002C8.52643 33.3837 9.17163 33.8904 9.78587 34.4271C10.0955 34.696 10.384 34.9787 10.6949 35.265C11.0032 35.5489 11.3165 35.8253 11.636 36.0968C12.2738 36.6384 12.9289 37.1564 13.6001 37.6556C16.2874 39.6416 19.2249 41.315 22.3815 42.4717C25.5295 43.6284 28.9277 44.241 32.3196 43.987C32.4311 43.9796 32.5425 43.9621 32.6527 43.9522C32.5103 43.9858 32.3704 44.0269 32.228 44.058C29.0713 44.7528 25.7574 44.6395 22.5723 43.9596C19.3784 43.2798 16.2961 42.0646 13.4082 40.5045C12.6862 40.1135 11.9753 39.7001 11.2806 39.2606C10.9339 39.0415 10.5908 38.8161 10.2527 38.5832C9.91838 38.3541 9.57659 38.1026 9.22364 37.8748C8.52024 37.4153 7.78711 36.987 6.98092 36.682C6.5772 36.535 6.15244 36.4143 5.69299 36.3993C5.46513 36.3919 5.22488 36.4143 4.99083 36.5002C4.87318 36.5438 4.75925 36.6023 4.65522 36.6832C4.54872 36.7691 4.46203 36.8488 4.38154 37.0094L4.81126 37.2049C4.82488 37.1788 4.8868 37.1053 4.94377 37.0655C5.00445 37.0206 5.07628 36.9845 5.15306 36.9571C5.30909 36.9036 5.49114 36.8862 5.67442 36.8949C6.04593 36.9123 6.42736 37.0244 6.7964 37.1688C7.53572 37.4627 8.23665 37.8872 8.91033 38.3454C9.25089 38.5745 9.57163 38.8186 9.9159 39.0664C10.2565 39.3092 10.602 39.5457 10.9512 39.7748C11.6484 40.2355 12.363 40.6701 13.0899 41.0822C15.9964 42.7245 19.1147 44.0244 22.3877 44.7876C25.6534 45.5484 29.0998 45.7401 32.436 45.074C32.5475 45.0516 32.6565 45.0205 32.7679 44.9968C32.6292 45.0491 32.4942 45.1076 32.3543 45.1574C29.3054 46.2319 26.0014 46.5258 22.758 46.2419C19.5072 45.958 16.2998 45.13 13.2447 43.936C12.4806 43.6347 11.7252 43.3122 10.9834 42.9611C10.6131 42.7855 10.2441 42.6049 9.88123 42.4157C9.52333 42.2289 9.15182 42.0197 8.77411 41.838C8.01993 41.4682 7.23974 41.1332 6.40259 40.9303C5.98402 40.8332 5.54686 40.7647 5.09114 40.8058C4.86327 40.8269 4.62922 40.8792 4.40631 40.9925C4.29609 41.0486 4.18959 41.1233 4.09547 41.2154C4.00135 41.3138 3.92457 41.4022 3.86389 41.5728L4.31343 41.7135C4.32457 41.6861 4.37658 41.6051 4.4286 41.5603C4.48309 41.508 4.54996 41.4619 4.62426 41.4271C4.77287 41.3536 4.94996 41.315 5.13324 41.3001C5.50352 41.2727 5.89609 41.3374 6.27875 41.4358C7.04903 41.6363 7.79578 41.9724 8.519 42.3447C8.88433 42.5302 9.23231 42.7344 9.60507 42.9386C9.97287 43.1379 10.3444 43.3296 10.7171 43.5139C11.4664 43.8862 12.228 44.2286 12.9983 44.5498C16.0831 45.8236 19.3363 46.7312 22.6775 47.0886C26.01 47.4434 29.454 47.2119 32.6849 46.1411C34.2973 45.6106 35.8478 44.8748 37.2831 43.9596C38.2354 43.352 39.1332 42.661 39.9803 41.9127C40.0509 41.8666 40.1215 41.818 40.1921 41.7707C40.2664 41.7334 40.3431 41.6948 40.4174 41.6562C40.4955 41.6275 40.5747 41.6001 40.6515 41.5715C40.7332 41.5541 40.815 41.5354 40.8955 41.5155C40.9809 41.508 41.0664 41.4993 41.1518 41.4893C41.2348 41.4918 41.319 41.4943 41.402 41.4956C41.4837 41.5068 41.5654 41.5192 41.6472 41.5317C41.7314 41.5553 41.8144 41.5777 41.8973 41.6002C41.9741 41.6325 42.0509 41.6649 42.1277 41.6948C42.2007 41.7359 42.2738 41.777 42.3469 41.818C42.4137 41.8691 42.4806 41.9189 42.5487 41.9675C42.6106 42.026 42.6713 42.0857 42.7345 42.143C42.7877 42.2053 42.8385 42.27 42.893 42.3335C42.9388 42.4057 42.9859 42.478 43.0329 42.5514C43.0676 42.6261 43.1035 42.7008 43.1407 42.7755C43.1679 42.8552 43.1939 42.9349 43.2212 43.0146C43.2385 43.098 43.2546 43.1814 43.2732 43.2636C43.2038 43.3894 43.1605 43.4765 43.1605 43.4765C43.1605 43.4765 42.3048 45.9269 43.4106 46.1946C44.4806 46.4548 45.2719 45.4301 44.9772 43.2026H44.9797L44.9772 43.1976C44.9673 43.1266 44.9661 43.0656 44.9549 42.9922C44.94 42.8988 44.9202 42.8266 44.9029 42.7494L44.9079 42.7444C44.9079 42.7444 44.9029 42.7407 44.9017 42.7382C44.862 42.5688 44.8174 42.4244 44.7642 42.3223L44.7815 42.2999C44.7729 42.2937 44.7667 42.2874 44.7592 42.2812C44.8534 41.8641 44.9599 41.4507 45.0812 41.0411C45.5382 39.4897 46.1896 37.9968 47.0156 36.6035C48.6627 33.8095 51.0044 31.45 53.6719 29.5699C56.3444 27.6873 59.3289 26.2492 62.4348 25.1884C63.2125 24.9244 63.9976 24.6853 64.7902 24.4724C65.1877 24.3666 65.5853 24.2695 65.984 24.1786C66.3778 24.0902 66.7964 24.0105 67.2014 23.9059C68.015 23.7017 68.8274 23.4539 69.5976 23.0692C69.9828 22.8737 70.358 22.6434 70.6825 22.3159C70.8422 22.1528 70.9896 21.9623 71.0874 21.7295C71.1345 21.6149 71.1691 21.4904 71.1828 21.3597C71.1914 21.2227 71.1927 21.1044 71.132 20.9351L71.1394 20.9475Z" fill="white"/>
</g>
<defs>
<clipPath id="clip0_154_786">
<rect width="77.2941" height="44.5027" fill="white" transform="translate(0 6)"/>
</clipPath>
</defs>
</svg>
